<?xml version="1.0" encoding="UTF-8"?><svg xmlns="http://www.w3.org/2000/svg" xmlns:xlink="http://www.w3.org/1999/xlink" height="347.1" preserveAspectRatio="xMidYMid meet" version="1.0" viewBox="0.0 -0.5 468.6 347.1" width="468.6" zoomAndPan="magnify"><g fill="#F9D7CB" id="change1_2"><path d="M180.009,131.627l-0.376-3.032l-2.967,4.431C177.741,132.623,178.883,132.154,180.009,131.627z"/><path d="M458.302,184.044l-14.707-8.248h-35.079l-0.696-8.347h25.44l3.279-3.279c0,0,0-3.279-1.789-5.068 c-1.789-1.789-5.962-8.646-5.962-8.646l-1.192-11.627l-2.087-21.167v-12.521l-3.279-13.714l-10.434-3.876h-25.341h-16.397 l-7.453,9.54l-2.981,10.136v6.559v15.204v6.583l-0.982-0.151l-0.82,3.392c-0.351,11.78,5.47,17.403,5.47,17.403 c6.254,4.479,18.817,6.112,18.817,6.112l3.444-1.067l-1.483,14.533h-5.962h-18.484l-11.428,3.478l-23.055,23.85l-27.03,20.67 l-13.912-17.887l-3.863,2.713l-21.18-32.823l-4.722-8.347c0,0-4.42-23.85-8.793-26.086c-4.372-2.236-8.745,1.54-8.347,3.428 c0.397,1.888,1.59,11.826,1.59,11.826l-19.08-15.254l-8.39-2.622l-2.874-24.121l-3.893-13.799l-7.011-3.469l-13.302-2.607 l1.355,0.266c-2.061-6.502-5.919-8.232-5.919-8.232s1.749-9.072-2.186-13.875s-10.932-3.736-10.932-3.736 s1.749-9.072-10.431-11.207c-12.18-2.135-12.309,4.803-12.309,4.803s-3.936-2.135-12.682,0c-8.746,2.135-7.871,9.072-7.871,9.072 s-2.624-1.601-8.746,3.736c-6.122,5.337,0,14.409,0,14.409s-4.373,0-7.852,5.87s0.855,15.476,0.855,15.476 c-3.936,10.139,16.003,23.481,16.003,23.481l-2.738,18.323l-5.15,0.036l-13.538-1.318l-27.961,1.026l-14.74,5.769l-16.664,14.13 l-10.843,22.725l-21.42,38.843l-9.693,31.112L0,278.791l9.374,21.465l15.871,9.901l23.199-0.435l-1.867,27.68h57.328h8.09h36.417 h37.988l-2.627-24.706l28.995-10.171l11.103-3.674l8.975-8.449l4.493-16.001l-2.709-23.134l-8.409-43.452l-3.038-21.36l3.378,3.552 l13.117,20.272l14.755,16.534l-3.625,2.546l17.49,20.67l7.95,11.925v80.692l6.36,3.975h59.227l2.853-0.744l97.906-1.543 l-2.095-26.554l19.393-1.37l5.167-15.701l3.577-65.388v-36.967L458.302,184.044z M174.128,152.752l-29.661,0.21l3.634-0.178 l0.95-11.548l3.226-0.604l11.085-0.317l11.148-4.073l5.122-7.648l1.709,13.768l1.379,12.42L174.128,152.752z M189.162,132.325 l-0.609-6.383l-1.322-5.75c-0.206-2.821-0.902-5.131-0.902-5.131s0.721-3.767,0.771-8.725l3.5,1.627l1.832,7.372l2.904,15.022 L189.162,132.325z"/><path d="M216.95,60.126l0.125-0.276c-2.5,5.753-0.831,12.783,3.126,17.625c3.957,4.842,9.853,7.721,15.886,9.192 c3.964,0.966,8.284,1.352,11.999-0.348c3.063-1.402,5.35-4.045,7.493-6.686c8.824,4.273,20.3,2.017,26.881-5.318 c1.792-1.997,3.288-4.868,2.138-7.302l-0.055-0.07c5.269-0.34,10.659-0.734,15.496-2.877c4.837-2.143,9.096-6.409,9.784-11.711 c0.354-2.729-0.251-5.507-1.224-8.077c-1.762-4.652-5.558-9.252-10.477-9.155l-0.07-0.138c2.717-1.127,4.658-3.737,5.511-6.583 c0.853-2.845,0.728-5.908,0.211-8.835c-0.613-3.475-1.817-6.94-4.121-9.589c-2.484-2.856-6.048-4.538-9.672-5.547 c-5.004-1.394-10.396-1.632-15.367-0.122c-4.971,1.51-9.478,4.865-11.916,9.505l-0.755,1.584 c-1.223-6.045-5.92-11.023-11.534-13.421c-5.613-2.398-12.01-2.436-17.95-1.065c-4.87,1.124-9.654,3.255-13.088,6.928 c-3.434,3.674-5.311,9.069-3.979,13.945l-0.543,2.288c-5.922,4.416-10.021,11.584-9.888,19.031S209.921,57.935,216.95,60.126z"/><ellipse cx="234.939" cy="100.887" rx="9.683" ry="6.143"/><path d="M226.902,115.277c0,1.78,2.275,3.224,5.082,3.224c2.806,0,5.082-1.443,5.082-3.224 c0-1.781-2.275-3.224-5.082-3.224C229.177,112.053,226.902,113.496,226.902,115.277z"/></g><g id="change2_1"><path d="M181.385,125.977L181.385,125.977L181.385,125.977L181.385,125.977z M182.097,119.727l4.994-0.143 l0.14,0.609c-0.206-2.821-0.902-5.131-0.902-5.131s0.721-3.767,0.771-8.725l-1.69-0.785l-1.917-0.718l-0.812,9.756L182.097,119.727z M184.333,94.744l1.355,0.266c-2.061-6.502-5.919-8.232-5.919-8.232s1.749-9.072-2.186-13.875s-10.932-3.736-10.932-3.736 s1.749-9.072-10.431-11.207c-12.18-2.135-12.309,4.803-12.309,4.803s-3.936-2.135-12.682,0c-8.746,2.135-7.871,9.072-7.871,9.072 s-2.624-1.601-8.746,3.736c-6.122,5.337,0,14.409,0,14.409s-4.373,0-7.852,5.87s0.855,15.476,0.855,15.476 c-3.936,10.14,16.003,23.481,16.003,23.481l1.782-11.925l-6.69-4.161l-2.222-6.081l1.72-5.511l7.046-4.297l15.724-14.019 l11.314-1.262h15.195l10.187,3.349L184.333,94.744z M179.632,128.594l-2.967,4.431c1.076-0.402,2.218-0.871,3.344-1.399 L179.632,128.594z" fill="#AFAFAF"/></g><g id="change1_1"><path d="M254.434,167.448c0,0-4.42-23.85-8.793-26.086c-4.372-2.236-8.745,1.54-8.347,3.428 c0.397,1.888,1.59,11.826,1.59,11.826l-19.08-15.254l-8.39-2.622l-2.874-24.121l-3.893-13.799l-7.011-3.469l-13.302-2.607 l-6.658-3.844l-10.187-3.349h-15.195l-11.314,1.262l-15.724,14.019l-7.046,4.297l-1.72,5.511l2.222,6.081l6.69,4.161l-4.52,30.248 l23.586-0.167l3.634-0.178l0.95-11.548l3.226-0.604l11.085-0.317l11.148-4.073l5.122-7.648l1.709,13.768l1.379,12.42l18.029-1.214 l12.804-0.862l4.98,1.052l4.65,32.694l3.379,3.552l13.117,20.272l14.755,16.534l25.902-18.193l-21.18-32.823L254.434,167.448z M181.385,125.977L181.385,125.977L181.385,125.977L181.385,125.977z M182.097,119.727l0.585-5.137l0.812-9.756l1.917,0.718 l5.189,2.412l1.832,7.372l2.904,15.022l-6.173,1.968l-0.609-6.383l-1.462-6.359L182.097,119.727z M208.605,272.263l0.078,10.693 l-3.489,9.316l-9.459,3.456l-31.158,0.662l-30.82,0.539l-0.212-0.521l0.453-3.013l2.79-27.056l16.089-5.115l15.358-4.08 l11.557,2.287l5.782,3.248l17.027,2.586L208.605,272.263z M422.826,286.996l-6.559,32.495h-26.831l-74.531,1.789l-9.838-8.049 l-1.789-8.347l1.491-9.54l8.049-5.366l15.502-2.981l10.136-5.068l14.453-1.789l15.58,6.857h31.679H422.826z M407.695,146.826 l-2.052-15.904h4.691l4.397,2.785l1.173,4.104c0,0-0.733,3.518-1.759,5.13C413.119,144.554,407.695,146.826,407.695,146.826z M391.991,140.834l9.576-5.13l0.092,1.336l1.975,9.438l-8.594,6.119l-2.022-5.035L391.991,140.834z M395.435,158.203l9.154-7.881 l2.138,4.009l1.789,21.465H384.07l1.483-14.533L395.435,158.203z M386.941,139.769l-27.317-4.196v-6.583v-15.204l40.545,1.491 l1.21,17.662L386.941,139.769z" fill="#F9D7CB"/></g><g id="change3_1"><path d="M182,296.021l4.401,41.38h-37.988h-36.417h-8.09l-4.886-29.693l19.418-1.351l13.552,0.409l1.555-10.357 l0.212,0.521l30.82-0.539L182,296.021z M458.302,184.044l-14.707-8.248h-35.079l-2.385,39.948l-5.962,71.251h22.657l-3.232,16.012 l0,0l-3.327,16.483h-26.831l-36.526,0.877v10.75l-1.932,13.117l-6.29,1.641l97.906-1.543l-2.095-26.554l19.393-1.37l5.167-15.701 l3.577-65.388v-36.967L458.302,184.044z M352.91,280.139l4.598,2.024l20.599-106.367h-18.484l-11.428,3.478l-23.055,23.85 l-27.03,20.67l-13.912-17.887l-33.39,23.452l17.49,20.67l7.95,11.925v-13.872l6.36-8.798h26.632h33.39l10.279,2.994V280.139z M382.109,162.33l13.327-4.127l14.302-12.314c-1.137,0.556-2.042,0.937-2.042,0.937l-0.383-2.967l-12.272,8.737l-2.022-5.035 l-1.027-6.727l13.966-7.482l-0.314-2.43l-18.702,8.847l-28.299-4.346l-0.82,3.392c-0.351,11.78,5.47,17.403,5.47,17.403 C369.546,160.696,382.109,162.33,382.109,162.33z M137.116,263.155l-32.788-0.656l1.215-9.251l2.267-24.187l6.283-58.509 c7.314,1.117,20.49,1.532,29.23-7.465c0,0,11.558,10.116,30.895,8.779l0.708,20.802l0.182,18.314l1.163,36.719l1.467,11.326 l-9.503-1.88l-15.358,4.08l-16.089,5.115L137.116,263.155z M141.469,181.283c0,1.917,1.554,3.472,3.472,3.472 s3.472-1.554,3.472-3.472s-1.554-3.472-3.472-3.472S141.469,179.366,141.469,181.283z M141.469,195.976 c0,1.917,1.554,3.472,3.472,3.472s3.472-1.554,3.472-3.472c0-1.917-1.554-3.472-3.472-3.472S141.469,194.059,141.469,195.976z M141.469,213.429c0,1.917,1.554,3.472,3.472,3.472s3.472-1.554,3.472-3.472c0-1.917-1.554-3.472-3.472-3.472 S141.469,211.511,141.469,213.429z" fill="#4DA67C"/></g><g id="change4_1"><path d="M234.63,251.267l2.709,23.134l-4.493,16.001l-8.975,8.449l-11.103,3.674l-28.995,10.171L182,296.021 l13.734-0.292l9.459-3.456l3.489-9.316l-0.078-10.693l-6.003-6.997l-17.027-2.586l-5.782-3.248l-2.054-0.406l-1.467-11.326 l-1.163-36.719l-0.182-18.314l-0.708-20.802l-0.045-9.556l0.045,9.556c-19.337,1.337-30.895-8.779-30.895-8.779 c-8.74,8.997-21.916,8.582-29.23,7.465l-6.283,58.509l-2.267,24.187l-1.215,9.251l32.788,0.656l-3.119,30.241l-2.008,13.37 l-13.552-0.409l-19.418,1.351l4.886,29.693H46.578l1.867-27.68l-23.199,0.435l-15.871-9.901L0,278.791l0.871-13.337l9.693-31.112 l21.42-38.843l10.843-22.725l16.664-14.13l14.74-5.769l27.961-1.026l13.538,1.318l58.398-0.414l0,0l8.592,2.03l30.833-2.075 l4.98,1.052l7.688,54.055L234.63,251.267z M378.107,175.796l-20.599,106.367l10.982,4.833h31.679l5.962-71.251l2.385-39.948H384.07 H378.107z M298.124,35.123l-0.07-0.138c2.717-1.127,4.658-3.737,5.511-6.583c0.853-2.845,0.728-5.908,0.211-8.835 c-0.613-3.475-1.817-6.94-4.121-9.589c-2.484-2.856-6.048-4.538-9.672-5.547c-5.004-1.394-10.396-1.632-15.367-0.122 c-4.971,1.51-9.478,4.865-11.916,9.505l-0.755,1.584c-1.223-6.045-5.92-11.023-11.534-13.421c-5.613-2.398-12.01-2.436-17.95-1.065 c-4.87,1.124-9.654,3.255-13.088,6.928c-3.434,3.674-5.311,9.069-3.979,13.945l-0.543,2.288 c-5.922,4.416-10.021,11.584-9.888,19.031s4.957,14.831,11.985,17.023l0.125-0.276c-2.5,5.753-0.831,12.783,3.126,17.625 c3.957,4.842,9.853,7.721,15.886,9.192c3.964,0.966,8.284,1.352,11.999-0.348c3.063-1.402,5.35-4.045,7.493-6.686 c8.824,4.273,20.3,2.017,26.881-5.318c1.792-1.997,3.288-4.868,2.138-7.302l-0.055-0.07c5.269-0.34,10.659-0.734,15.496-2.877 c4.837-2.143,9.096-6.409,9.784-11.711c0.354-2.729-0.251-5.507-1.224-8.077C306.839,39.626,303.043,35.027,298.124,35.123z M144.941,177.812c-1.917,0-3.472,1.554-3.472,3.472s1.554,3.472,3.472,3.472s3.472-1.554,3.472-3.472 S146.858,177.812,144.941,177.812z M144.941,192.504c-1.917,0-3.472,1.554-3.472,3.472c0,1.917,1.554,3.472,3.472,3.472 s3.472-1.554,3.472-3.472C148.413,194.059,146.858,192.504,144.941,192.504z M144.941,209.957c-1.917,0-3.472,1.554-3.472,3.472 c0,1.917,1.554,3.472,3.472,3.472s3.472-1.554,3.472-3.472C148.413,211.511,146.858,209.957,144.941,209.957z M234.939,94.744 c-5.348,0-9.683,2.75-9.683,6.143s4.335,6.143,9.683,6.143c5.348,0,9.683-2.75,9.683-6.143S240.287,94.744,234.939,94.744z M237.065,115.277c0-1.781-2.275-3.224-5.082-3.224c-2.807,0-5.082,1.443-5.082,3.224c0,1.78,2.275,3.224,5.082,3.224 C234.79,118.5,237.065,117.057,237.065,115.277z M422.229,91.427l-10.434-3.876h-25.341h-16.397l-7.453,9.54l-2.981,10.136v6.559 l40.545,1.491l25.34,2.385v-12.521L422.229,91.427z" fill="#4676B6"/></g><g id="change5_1"><path d="M177.662,109.484c0.139,1.38-0.867,2.611-2.247,2.75c-1.38,0.139-2.611-0.867-2.75-2.247 c-0.139-1.38,0.867-2.611,2.247-2.75S177.523,108.104,177.662,109.484z M183.065,106.523c0.859,2.352,0.751,4.897-0.304,7.168 c-1.055,2.271-2.932,3.995-5.284,4.854c-1.049,0.383-2.138,0.574-3.223,0.574c-1.347,0-2.688-0.294-3.946-0.879 c-2.271-1.055-3.995-2.932-4.854-5.284c-0.273-0.747-0.437-1.514-0.516-2.285l-0.91,0.054c-0.433,3.365-2.674,6.384-6.075,7.627 c-1.058,0.386-2.142,0.569-3.208,0.569c-3.826,0-7.427-2.36-8.814-6.157c-1.774-4.855,0.733-10.249,5.588-12.023 c4.855-1.774,10.249,0.733,12.022,5.589c0.222,0.608,0.377,1.224,0.469,1.841l1.023-0.06c0.141-0.792,0.376-1.573,0.724-2.322 c1.055-2.271,2.932-3.995,5.284-4.854c2.352-0.858,4.898-0.752,7.168,0.305C180.482,102.294,182.205,104.171,183.065,106.523z M161.147,107.205c-1.292-3.533-5.215-5.362-8.752-4.067c-3.534,1.291-5.358,5.217-4.068,8.752c1.291,3.534,5.216,5.362,8.752,4.066 C160.613,114.665,162.438,110.739,161.147,107.205z M180.669,107.398c-0.625-1.712-1.88-3.078-3.534-3.847 c-0.915-0.425-1.892-0.639-2.872-0.639c-0.79,0-1.582,0.139-2.346,0.418c-1.712,0.625-3.078,1.88-3.846,3.533 c-0.768,1.652-0.847,3.506-0.221,5.218s1.88,3.078,3.533,3.847c1.652,0.767,3.506,0.846,5.218,0.221 c1.712-0.625,3.078-1.88,3.846-3.533C181.216,110.964,181.295,109.11,180.669,107.398z M155.39,107.043 c-1.38,0.139-2.386,1.37-2.247,2.75c0.139,1.38,1.37,2.386,2.75,2.247s2.386-1.37,2.247-2.75S156.77,106.905,155.39,107.043z M155.641,126.039h11.846v-2.551h-11.846V126.039z M309.241,239.283h-26.632l-6.36,8.798v94.564l6.36,3.975h59.227l9.142-2.385 l1.932-13.117v-10.75l-38.005,0.912l-9.838-8.049l-1.789-8.347l1.491-9.54l8.049-5.366l15.502-2.981l10.136-5.068l14.453-1.789 v-37.862l-10.279-2.994H309.241z M436.539,164.169l-3.279,3.279h-25.44l-1.093-13.117l-2.385-4.472l-2.683-12.819l-1.491-21.763 l25.34,2.385l2.087,21.167l1.192,11.627c0,0,4.174,6.857,5.962,8.646C436.539,160.89,436.539,164.169,436.539,164.169z M415.904,137.811l-1.173-4.104l-4.397-2.785h-4.691l2.052,15.904c0,0,5.423-2.272,6.45-3.884 C415.171,141.329,415.904,137.811,415.904,137.811z M374.429,199.126h-1.673v-23.292h-1.559v23.292h-1.238 c-5.435,0-9.855,4.421-9.855,9.855v27.962c0,5.434,4.421,9.854,9.855,9.854v-1.559c-4.575,0-8.297-3.722-8.297-8.296v-27.962 c0-4.575,3.722-8.297,8.297-8.297h4.47c4.575,0,8.297,3.722,8.297,8.297v27.962c0,4.574-3.722,8.296-8.297,8.296v1.559 c5.435,0,9.855-4.421,9.855-9.854v-27.962C384.285,203.547,379.864,199.126,374.429,199.126z M429.135,222.179v3.939 c0,3.34-2.717,6.057-6.057,6.057h-5.005c-3.34,0-6.058-2.717-6.058-6.057v-3.939c0-3.34,2.718-6.058,6.058-6.058h1.723v-40.287 h1.559v40.287h1.724C426.418,216.121,429.135,218.839,429.135,222.179z M427.577,222.179c0-2.48-2.018-4.499-4.498-4.499h-1.724 v0.023h-1.559v-0.023h-1.723c-2.48,0-4.499,2.019-4.499,4.499v3.939c0,2.48,2.019,4.498,4.499,4.498h5.005 c2.48,0,4.498-2.018,4.498-4.498V222.179z M366.31,128.912c0.996-0.273,1.582-1.302,1.309-2.298 c-0.273-0.996-1.302-1.583-2.298-1.31c-0.996,0.273-1.582,1.302-1.309,2.298C364.285,128.599,365.314,129.185,366.31,128.912z M380.389,129.52c0.996-0.273,1.582-1.302,1.309-2.298c-0.273-0.996-1.302-1.583-2.298-1.31c-0.996,0.273-1.582,1.302-1.309,2.298 C378.364,129.207,379.392,129.793,380.389,129.52z M273.672,28.406c-5.638-0.874-11.321-1.697-17.041-1.626 c-2.817,0.035-5.629,0.289-8.38,0.912c-2.565,0.582-5.378,1.398-7.572,2.899c-0.857,0.586-1.811,1.502-1.529,2.646 c0.227,0.919,1.195,1.549,1.959,1.983c0.382,0.217,0.784,0.405,1.183,0.598c0.469-0.197,0.939-0.381,1.406-0.54 c3.358-1.142,7.075-1.526,10.606-1.493c3.521,0.032,7.057,0.544,10.437,1.534c2.009,0.588,5.661,2.596,3.668,5.149 c-0.876,1.122-2.663,1.574-3.992,1.887c-1.568,0.37-3.196,0.499-4.804,0.449c-3.458-0.107-6.862-0.963-10.154-1.969 c-2.398-0.733-4.923-1.509-7.265-2.555c-0.761,0.407-1.479,0.876-2.127,1.432c-1.734,1.486-2.637,3.633-1.271,5.69 c1.221,1.839,3.37,3.01,5.342,3.898c2.156-1.416,4.765-2.016,7.366-2.023c1.904-0.005,3.824,0.266,5.688,0.637 c1.252,0.249,2.771,0.773,3.247,2.101c1.078,3.007-3.563,3.312-5.4,3.444c-3.127,0.226-6.337-0.177-9.318-1.148 c-0.399-0.13-0.821-0.282-1.254-0.452c-1.51,1.34-2.638,3.38-2.091,5.433c0.508,1.909,2.342,3.754,4.451,3.365 c1.418-0.261,2.02,1.908,0.598,2.17c-3.047,0.561-5.803-1.326-6.94-4.128c-1.116-2.751-0.163-5.722,1.786-7.827 c-4.178-2.135-8.275-5.83-5.62-10.559c0.754-1.344,1.895-2.395,3.194-3.229c-2.118-1.258-3.817-3.541-2.57-6.05 c1.299-2.613,4.752-3.798,7.32-4.658c3.049-1.021,6.255-1.543,9.458-1.749c6.77-0.435,13.544,0.576,20.217,1.61 C275.699,26.458,275.088,28.626,273.672,28.406z M251.057,49.533c-1.4,0.04-2.8,0.283-4.088,0.799 c1.484,0.438,3.012,0.741,4.542,0.862c1.243,0.098,2.493,0.098,3.735-0.003c0.325-0.026,2.927-0.168,2.983-0.516 C258.362,49.858,251.719,49.514,251.057,49.533z M245.24,37.05c1.01,0.367,2.028,0.71,3.023,1.042 c4.868,1.623,10.411,3.3,15.557,2.094c0.652-0.153,1.297-0.35,1.915-0.606c0.604-0.25,1.157-0.393,0.638-1.027 c-0.681-0.832-2.168-1.061-3.13-1.316c-2.616-0.693-5.299-1.091-8.004-1.182C252.143,35.951,248.496,36.094,245.24,37.05z M245.917,69.247c-0.078-0.101-0.156-0.202-0.234-0.303c-0.187-0.186-0.408-0.314-0.662-0.386c-0.133-0.018-0.266-0.036-0.399-0.054 c-0.271,0.001-0.523,0.069-0.757,0.205c-0.07,0.031-0.138,0.068-0.201,0.112c-0.162,0.112-0.324,0.23-0.465,0.368 c-0.14,0.137-0.259,0.309-0.373,0.462c-0.046,0.062-0.086,0.128-0.121,0.197c-0.088,0.175-0.167,0.358-0.228,0.544 c-0.025,0.076-0.043,0.155-0.055,0.234c-0.03,0.195-0.07,0.399-0.065,0.598c0.001,0.04,0.004,0.08,0.009,0.12 c0.019,0.166,0.037,0.334,0.07,0.498c0.05,0.12,0.101,0.239,0.151,0.358c0.094,0.175,0.223,0.315,0.386,0.421 c0.094,0.093,0.204,0.157,0.331,0.193c0.179,0.094,0.371,0.137,0.578,0.129c0.178-0.017,0.364-0.028,0.537-0.08 c0.162-0.049,0.32-0.121,0.47-0.196c0.151-0.075,0.308-0.217,0.423-0.309c0.037-0.03,0.073-0.06,0.105-0.095 c0.114-0.124,0.216-0.26,0.31-0.399c0.095-0.141,0.164-0.344,0.219-0.482c0.083-0.21,0.109-0.451,0.111-0.673 c0.003-0.077-0.009-0.15-0.02-0.222c0.009-0.028,0.024-0.053,0.031-0.082c0.062-0.199,0.071-0.399,0.027-0.598 C246.086,69.605,246.027,69.419,245.917,69.247z" fill="#2D3988"/></g></svg>