<?xml version="1.0" encoding="UTF-8"?><svg xmlns="http://www.w3.org/2000/svg" xmlns:xlink="http://www.w3.org/1999/xlink" height="208.5" preserveAspectRatio="xMidYMid meet" version="1.0" viewBox="-0.1 0.0 450.0 208.5" width="450.0" zoomAndPan="magnify"><g fill="#E08948" id="change1_1"><path d="M332.3,0.1c-7.2,0.2-14.3,0.6-21.4,1.6c-6.4,0.9-12.9,2-19.1,3.9c-6.6,1.9-13.1,4.7-19.2,7.7 c-5.7,2.8-11,6.3-16,10.1c-5.4,4.1-10.6,8.4-15.3,13.3c-4.6,4.6-8.9,9.5-13,14.5c-4.2,5-8.1,10.3-12.1,15.4 c-0.8,1.1-1.6,2.1-2.5,3.2c-0.5-0.5-1.1-1-1.8-1.4c-2-1.2-4.4-1.5-6.5-0.9c-2.1,0.6-4,2-5.1,3.9c-0.3,0.4-0.5,0.9-0.7,1.4 c-11.5-3.9-23.3-7-35.2-9.4c-8.3-1.7-16.6-3-25-3.7c-8.1-0.7-16.2-0.9-24.4-0.9c-8.2,0-16.4,0.4-24.5,1.4c-8.5,1-16.9,2.6-25.2,4.3 c-7.6,1.6-15,3.6-22.3,6.3c-3.8,1.4-7.5,3-11,4.8c-3.8,2-7.4,4.4-10.8,7.1c-6,4.6-11,10.5-14.5,17.2c-3.8,7.4-5.8,15.4-6.5,23.7 c-0.3,4,0.1,7.9,0.7,11.8c0.2,1.7,0.6,3.3,1,5c0.6,2.3,1.6,4.5,2.5,6.8c1.5,3.5,3.9,6.6,6.3,9.5c0.8,1,1.7,2,2.6,2.9 c0.2,0.4,0.3,0.9,0.5,1.3c1,2.3,2,4.5,3.3,6.7c2,3.4,4.5,6.5,7.2,9.4c1.1,1.1,2.2,2.2,3.4,3.2c1.1,1.3,2.3,2.6,3.5,3.9 c3,3.1,6.3,5.7,9.7,8.3c13.1,9.9,29.6,13.8,45.7,15.3c8.2,0.8,16.4,0.2,24.5-0.9c3.6-0.5,7.2-1.3,10.6-2.4 c4.3-1.3,8.4-3.2,12.5-5.1c14.3-6.8,27.4-15.9,39.7-25.9c12.1-9.9,23.2-21,33.3-32.9c7.1-8.3,13.5-17.2,19.7-26.1 c0.3,0,0.6,0.1,0.9,0.1c1.9,0.8,3.8,1.5,5.7,2.3c3.6,1.3,7.2,2.5,10.9,3.3c4.3,1,8.8,1.4,13.2,1.8c8.5,0.7,17.1,0.5,25.7,0.2 c5.3,0.5,10.6,0.8,15.9,0.8c7.9,0,15.9-0.6,23.8-1.4c8.2-0.9,16.3-2.4,24.2-4.7c3.5-1,6.9-2.3,10.3-3.7c2.6-1.1,5.1-2.2,7.6-3.4 c6.2-2.1,12.3-4.6,18.2-7.5c3.2-1.6,6.4-3.3,9.4-5.2c3.5-2.2,6.8-4.9,10-7.6c2.6-2.2,4.9-4.6,7-7.3c1.3-1.7,2.5-3.3,3.6-5.1 c1.2-2,2-4.3,2.8-6.5c1.2-3.6,1.7-7.4,1.9-11.2c0.1-2.2-0.2-4.4-0.5-6.7c-0.3-2.1-0.7-4.1-1.3-6.1c-1.1-3.7-2.9-7.3-5-10.6 c-2.3-3.5-5-6.6-8.2-9.2c-2.3-1.9-4.8-3.6-7.4-5c-1.6-1.9-3.3-3.7-5.2-5.4c-3.1-2.7-6.5-4.9-10.2-6.7c-4.8-2.3-9.8-4.3-15-5.6 c-3.7-1.1-7.5-1.9-11.4-2.5c-3.5-0.5-7-0.9-10.6-1.1C341.2,0,339.6,0,338,0C336.1,0,334.2,0,332.3,0.1L332.3,0.1L332.3,0.1z M347.2,29.8c3.8-0.1,7.7-0.1,11.5,0c3.5,0,6.9,0.2,10.3,0.5c4.5,0.7,9,1.9,13.2,3.6c0.1,0.1,0.2,0.1,0.4,0.2 c0.4,0.5,0.9,1,1.3,1.5c1.3,1.8,2.4,3.6,3.5,5.6c0.4,1.3,0.8,2.7,1,4c0.2,2,0.2,4,0.1,6.1c-0.2-0.4-0.4-0.8-0.6-1.1 c-1.1-2.1-2.6-4-4-5.9c-4.8-6.1-11.8-10.2-19.2-12.2c-3.8-1-7.8-1.3-11.7-1.5c-4-0.2-8.1-0.1-12.1,0.1c-3,0.2-5.9,0.5-8.9,0.9 c-0.5-0.2-1.1-0.5-1.6-0.7C335.9,30.4,341.5,30,347.2,29.8L347.2,29.8L347.2,29.8z M348.3,80.5c1.7-3.4,2.9-7,3.6-10.8 c0.4-2.1,0.6-4.2,0.7-6.3c0.1-2.4-0.4-4.9-0.7-7.3c-0.5-3-1.6-5.9-2.9-8.6c2.9,0,5.8,0.2,8.7,0.5c2.1,0.4,4.1,0.9,6.1,1.7 c1.6,0.7,3.1,1.6,4.5,2.6c1.1,0.9,2.1,2,3,3.1c1.2,1.8,2.3,3.6,3.2,5.5c0.8,2,1.3,4.1,1.7,6.2c0.2,2.3,0.3,4.6,0.1,6.8 c-0.1,0.3-0.1,0.6-0.2,0.9c-1.3,1.2-2.5,2.5-3.9,3.6c-1.2,0.6-2.4,1.2-3.6,1.7c-4.9,2-9.9,3.9-15,5.5c-3.5,1.1-7.1,2.2-10.7,3.1 C344.9,86.1,346.8,83.4,348.3,80.5L348.3,80.5L348.3,80.5z M328.7,49.3c0.1,0.1,0.1,0.1,0.2,0.2c1.2,1,2.2,2.1,3.2,3.2 c0.8,1.1,1.5,2.3,2.1,3.5c0.5,1.5,0.9,2.9,1.2,4.5c0.1,1.7,0.2,3.3,0,5c-0.4,2-0.9,4-1.6,6c-0.7,1.5-1.5,2.8-2.4,4.2 c-1.6,1.9-3.5,3.7-5.4,5.3c-2.4,1.7-4.9,3.2-7.6,4.5c-2.8,1.1-5.7,2-8.7,2.7c-3.4,0.9-6.9,1.6-10.3,2.1c-3.9,0.5-7.8,0.7-11.7,0.9 c-4.8,0.2-9.6,0.4-14.4,0.5c-8.9,0.1-17.7-0.5-26.5-1.6c-0.8-0.1-1.7-0.2-2.5-0.4c1.4-1.9,2.8-3.8,4.2-5.6 c4.6-2.7,9.2-5.4,13.7-8.1c10.7-6.3,21.8-12,33.2-16.9C306,54.6,317.2,51.3,328.7,49.3L328.7,49.3L328.7,49.3z M121.3,99.5 c5.2-0.1,10.3-0.1,15.5,0c3.7,0.1,7.4,0.2,11.1,0.3c5.1,0.2,10.2,0.3,15.3,0.5c1.2,0,2.5,0.1,3.7,0.2c2.4,0.6,4.7,1.2,7.1,1.8 c3.2,0.8,6.5,1.6,9.7,2.4c-0.2,0.2-0.4,0.4-0.6,0.6c-0.6,0.4-1.3,0.8-1.9,1.2c-3.2,2.1-6.5,3.9-9.8,5.9c-6,3.5-12.1,7.1-18.1,10.6 c-4,2.4-8.2,4.5-12.3,6.7c-6.8,3.5-13.7,6.8-20.7,9.8c-4.7,1.9-9.4,3.8-14.2,5.2c-5.2,1.6-10.5,2.7-15.8,3.5 c-7,0.9-14.1,1-21.2,0.5c-1.6-0.9-3.1-1.8-4.5-2.9c-1.2-1-2.4-2.1-3.4-3.3c-0.5-0.8-0.9-1.5-1.3-2.3c-0.6-1.6-1-3.2-1.3-4.9 c-0.1-1.3-0.1-2.7-0.1-4c0.3-1.2,0.6-2.4,1.1-3.6c1.2-2.5,2.6-4.8,4.2-7c2.1-2.6,4.6-4.9,7.2-7c3.8-2.8,7.9-5.1,12.2-7 c3.6-1.5,7.3-2.7,11.1-3.7c3.9-1,7.8-1.7,11.8-2.2C111.2,100,116.2,99.6,121.3,99.5L121.3,99.5L121.3,99.5z M57.7,102.4 c-1.3,1.2-2.6,2.4-3.8,3.6c-2.7,2.7-5,5.9-6.9,9.1c-2.2,3.6-4,7.6-4.8,11.7c-0.4,2-0.6,4.1-0.6,6.1c0,2.1,0.3,4.1,0.6,6.1 c0.1,0.7,0.2,1.5,0.4,2.2c-1.5-0.9-2.9-1.8-4.2-2.8c-1.7-1.4-3.2-2.9-4.6-4.6c-1.3-1.9-2.5-3.9-3.5-6c0-0.1,0-0.1-0.1-0.2 c0.2-0.5,0.3-1,0.5-1.4c1.2-2.7,2.7-5.2,4.4-7.6c2.4-2.9,5.1-5.5,8.1-7.9C47.7,107.5,52.6,104.7,57.7,102.4L57.7,102.4L57.7,102.4z M193.9,126.8c2.2-1.7,4.3-3.3,6.5-5c-12.5,15.8-26.8,30.2-42.6,42.5c-11.2,8.5-23,16.1-35.9,21.7c-2.5,1-5,1.9-7.5,2.6 c-0.7,0.2-1.5,0.4-2.3,0.6c4.6-2.2,9.1-4.7,13.5-7.3c6.9-4.1,13.3-9.3,19.6-14.3c6.2-5,12.1-10.2,18-15.6 c4.8-4.3,9.4-8.8,14.1-13.2C182.9,135.1,188.5,131,193.9,126.8L193.9,126.8L193.9,126.8z M159.1,163.4c-0.2,0.2-0.5,0.4-0.7,0.5 C158.6,163.7,158.8,163.6,159.1,163.4L159.1,163.4L159.1,163.4z M89.7,178.7c0.5-0.1,1-0.1,1.5-0.2c-1.6,0.4-3.2,0.7-4.9,0.9 c-3.8,0.4-7.6,0.6-11.4,0.5C79.8,179.8,84.8,179.4,89.7,178.7L89.7,178.7L89.7,178.7z" fill="inherit"/><path d="M435.4,71.7c-3.7,4.4-7.5,8.6-11.3,12.8c-2.4,2.7-4.8,5.4-7.2,8c-3.8,4.2-7.6,8.5-12,12.1 c-4.4,3.2-9.1,5.9-14,8.1c-11.2,4.5-23,7.8-35,9.6c-10.5,1.3-21,1.7-31.6,1.5c-11.2-0.2-22.4-0.7-33.6-2.1 c-7.5-1.1-15-2.4-22.3-4.1c-3.7-0.9-7.3-1.9-11-2.9c-4-1-8-1.8-12-2.4c-8.3-1.3-16.6-2-25-1.6c-8.5,0.4-16.9,1.7-25.2,3.6 c-8.1,1.9-15.9,4.9-23.5,8.2c-7.3,3.1-14.3,6.6-21.4,10.2c-6.1,3.2-12.2,6.5-18.2,9.8c-7.9,4.3-15.8,8.4-23.7,12.5 c-4.4,2.3-8.7,4.7-13.1,7c-4.2,2.3-8.3,4.8-12.4,7.3c-3.9,2.4-5.4,7.6-3.1,11.6c2.3,3.9,7.7,5.5,11.6,3.1c4.9-3,9.9-6,15-8.7 c4.7-2.5,9.4-5.1,14.2-7.6c5-2.6,10-5.1,14.9-7.8c6-3.2,11.9-6.5,17.9-9.7c8.4-4.6,17-8.9,25.7-12.6c4.9-2,9.9-3.9,15-5.4 c5.5-1.7,11.2-2.8,16.9-3.7c4.7-0.6,9.4-0.9,14.2-1c4.8,0,9.6,0.4,14.3,0.9c3.2,0.5,6.5,1,9.7,1.7c4,0.9,8,2,11.9,3.1 c7.8,2,15.8,3.4,23.7,4.6c8.5,1.3,17.1,2,25.7,2.5c8.2,0.4,16.4,0.6,24.6,0.5c8.4-0.1,16.8-0.9,25.1-2.1c7.8-1.1,15.4-2.9,22.9-5.3 c7.8-2.4,15.5-5.2,22.6-9.2c3.6-2,6.9-4.3,10.1-6.8c3.1-2.4,5.8-5.1,8.4-7.9c4.1-4.4,8.1-8.9,12.2-13.4c3.7-4.1,7.4-8.2,10.9-12.4 c1.5-1.8,2.5-3.6,2.5-6c0-2.2-0.9-4.4-2.5-6s-3.8-2.5-6-2.5C439.3,69.2,436.8,70.1,435.4,71.7L435.4,71.7L435.4,71.7z" fill="inherit"/></g><g fill="#874C23" id="change2_1"><path d="M83.9,89.3c0,1.8,0.2,3.5,0.9,5.1c0.7,1.5,2.3,2.6,3.7,3.4c0.8,0.4,1.8,0.6,2.6,0.8 c1.1,0.3,2.3,0.3,3.4,0.3c1.1,0,2.3-0.1,3.4-0.1c0,0,0,0,0,0c-3.1-1.1-6.2-2.2-9.1-3.7c-0.9-0.5-1.7-1.1-2.4-1.7 c-0.4-0.5-0.8-1-1.1-1.5c0,0,0,0,0,0c0,0,0,0,0,0c0,0,0,0,0,0c0,0,0,0,0,0c-0.2-0.4-0.5-0.8-0.7-1.2c0,0,0,0.1,0.1,0.1 C84.5,90.3,84.2,89.8,83.9,89.3C84,89.3,83.9,89.3,83.9,89.3C83.9,89.3,83.9,89.3,83.9,89.3L83.9,89.3L83.9,89.3z M85.4,91.9 C85.4,91.9,85.4,91.9,85.4,91.9C85.4,91.9,85.4,91.9,85.4,91.9C85.4,91.9,85.4,91.9,85.4,91.9L85.4,91.9L85.4,91.9z" fill="inherit"/><path d="M69.7,97.8c0.4,1.8,0.9,3.6,2.2,4.9c0.8,0.7,1.6,1.4,2.6,1.9c1.4,0.7,2.8,1,4.3,1.3c1.3,0.2,2.8,0.1,4.1,0 c1.1-0.1,2.3-0.3,3.4-0.5c1.2-0.3,2.4-0.6,3.6-1c0,0,0,0,0,0c-4.6-0.5-9.2-1.1-13.7-2.2c-1.1-0.3-2.1-0.7-3.1-1.2 c-0.5-0.3-1-0.7-1.5-1.1C70.9,99.2,70.3,98.5,69.7,97.8C69.7,97.8,69.7,97.8,69.7,97.8C69.7,97.8,69.7,97.8,69.7,97.8L69.7,97.8 L69.7,97.8z" fill="inherit"/><path d="M53.6,108.9c0.7,1.2,1.6,2.3,2.5,3.3c0.7,0.7,1.5,1.1,2.3,1.6c2.1,1.1,4.4,1.1,6.7,0.9 c2.7-0.2,5.5-1.2,8.1-2.1c0,0,0,0,0,0c-1.5-0.1-3-0.3-4.5-0.3c-1.7-0.1-3.4-0.2-5.1-0.3c-1.7-0.1-3.4-0.3-5.1-0.6 c-1.5-0.5-2.8-1.2-4.2-2c0,0,0,0,0,0c0,0,0,0,0,0c0,0,0,0,0,0c0,0,0,0,0,0C54,109.2,53.8,109,53.6,108.9 C53.6,108.9,53.6,108.9,53.6,108.9C53.6,108.9,53.6,108.9,53.6,108.9L53.6,108.9L53.6,108.9z M54.3,109.3 C54.3,109.3,54.3,109.3,54.3,109.3C54.3,109.3,54.3,109.3,54.3,109.3C54.3,109.3,54.3,109.3,54.3,109.3L54.3,109.3L54.3,109.3z" fill="inherit"/><path d="M44.9,123.7c0,0.6-0.1,1.4,0.2,2c0.6,1,1.2,1.7,2.1,2.3c0.8,0.5,1.7,0.8,2.5,1c1.6,0.4,3,0.4,4.6,0.3 c1.8-0.1,3.5-0.7,5.2-1.4c0.2-0.4,0.4-0.9,0.6-1.3c0.2-0.4,0.3-0.7,0.5-1.1c-1.4,0.2-2.8,0.4-4.2,0.5c-1.9,0.2-3.8,0.4-5.8,0.5 c-1.1,0-2.2-0.1-3.3-0.4c-0.4-0.1-0.9-0.3-1.3-0.6c0,0,0.1,0.1,0.1,0.1c-0.2-0.1-0.3-0.3-0.5-0.4c-0.1-0.2-0.3-0.3-0.4-0.5 c0,0,0,0,0,0C45.3,124.4,45.1,124,44.9,123.7C44.9,123.7,44.9,123.7,44.9,123.7C44.9,123.7,44.9,123.7,44.9,123.7L44.9,123.7 L44.9,123.7z" fill="inherit"/><path d="M61,141.8c-0.7,0.6-1.4,1.1-2.2,1.6c-1.2,0.6-2.5,1.2-3.9,1.6c-1.8,0.4-3.5,0.6-5.3,0.6 c-0.7,0-1.4-0.1-2.1-0.2c0.1,0,0.2,0.1,0.3,0.1c-0.4-0.1-0.8-0.2-1.1-0.4c-0.9-0.6-1.7-1.4-2.5-2.2c-0.2-0.2-0.4-0.4-0.5-0.6 c0,0,0,0,0,0c0.3,1,0.6,1.8,1,2.7c0.3,0.7,0.8,1.5,1.4,1.9c0.6,0.4,1.2,0.7,1.9,0.9c1.1,0.3,2.3,0.5,3.5,0.4 c0.9-0.1,1.9-0.2,2.8-0.5c1.1-0.4,2.1-0.9,3-1.6C58.9,145.2,60.1,143.6,61,141.8C61,141.8,61,141.8,61,141.8 C61,141.8,61,141.8,61,141.8L61,141.8L61,141.8z M46.5,145.1C46.5,145.1,46.6,145.1,46.5,145.1C46.6,145.1,46.5,145.1,46.5,145.1 L46.5,145.1L46.5,145.1z" fill="inherit"/><path d="M72.9,151c-2.8,2.6-5.3,5.5-8,8.3c-0.8,0.8-1.6,1.5-2.5,2.1c-0.8,0.4-1.6,0.7-2.4,1c0,0,0,0,0.1,0 c-0.3,0.1-0.7,0.2-1.1,0.2c0,0,0,0,0,0c1.3,0.3,2.6,0.4,3.9,0.2c1.6-0.3,3-1.2,4.2-2.1c1.4-1.1,2.5-2.6,3.4-4.1 C71.6,154.8,72.3,152.9,72.9,151C73,151,73,151,72.9,151C72.9,151,72.9,151,72.9,151L72.9,151L72.9,151z M62.6,161.3 C62.5,161.3,62.5,161.3,62.6,161.3C62.5,161.3,62.5,161.3,62.6,161.3L62.6,161.3L62.6,161.3z" fill="inherit"/><path d="M98.4,147c-2.6,1-5.1,2.3-7.3,4.1c-2.2,1.8-4.1,4.1-5.5,6.5c-2,3.7-3.5,7.9-3.4,12.1c0,0,0,0,0,0 c0.4-1,0.9-2,1.5-2.9c2.2-3.5,4.8-6.8,7.2-10.2c1.1-1.6,2.2-3.2,3.4-4.8C95.6,150.2,97,148.6,98.4,147C98.4,147,98.4,147,98.4,147 C98.4,147,98.4,147,98.4,147L98.4,147L98.4,147z M83.8,166.7C83.8,166.8,83.7,166.8,83.8,166.7C83.7,166.8,83.8,166.8,83.8,166.7 L83.8,166.7L83.8,166.7z" fill="inherit"/><path d="M121.8,140.5c-2.6,1.6-5.1,3.3-7.4,5.3c-2.4,2.1-4.3,4.8-5.3,7.8c-1.1,3.1-1.1,6.4-0.6,9.6 c0.2,1.2,0.5,2.4,1.1,3.4c0.6,1,1.3,1.8,2.2,2.6c0,0,0,0,0,0c-0.3-0.6-0.5-1.2-0.8-1.9c-0.2-0.6-0.3-1.3-0.3-1.9 c0-2.1,0.5-4.2,1-6.2c1-3.3,2.4-6.3,4-9.3C117.7,146.8,119.9,143.7,121.8,140.5C121.9,140.5,121.9,140.5,121.8,140.5 C121.8,140.5,121.8,140.5,121.8,140.5L121.8,140.5L121.8,140.5z M115.7,150.3c0,0.1-0.1,0.1-0.1,0.2 C115.6,150.4,115.6,150.3,115.7,150.3L115.7,150.3L115.7,150.3z" fill="inherit"/><path d="M142.8,132.3c-2.5,1.5-5,3-7,4.9c-2.4,2.3-4.2,5.3-5.3,8.3c-1.1,3.1-1.3,6.5-0.8,9.8 c0.2,1.3,0.6,2.8,1.4,3.9c0.8,1.2,1.8,2.3,2.8,3.3c0,0,0,0,0,0c-0.5-1-0.8-2-1.2-3.1c-0.2-0.8-0.3-1.5-0.4-2.4 c0.1-1.8,0.4-3.5,0.8-5.2c1.2-4.4,2.9-8.6,5.1-12.6C139.6,136.9,141.3,134.7,142.8,132.3C142.8,132.3,142.8,132.3,142.8,132.3 C142.8,132.3,142.8,132.3,142.8,132.3L142.8,132.3L142.8,132.3z" fill="inherit"/><path d="M165.2,120.4c-2.9,1.8-5.7,3.7-7.9,6.4c-2.2,2.7-3.5,6.1-4.2,9.5c-0.3,1.7-0.3,3.5-0.3,5.3 c0.1,1.7,0.3,3.2,1.1,4.7c0.7,1.2,1.7,2.1,2.9,2.7c0.4,0.2,1.2,0.3,1.7,0.4c1,0.2,2.1,0.3,3.1,0.3c0,0,0,0,0,0 c-0.7-0.3-1.4-0.7-2.1-1.1c-0.8-0.5-1.5-0.9-2.2-1.5c-0.1-0.2-0.3-0.4-0.4-0.6c-0.2-0.4-0.4-0.8-0.5-1.2c-0.1-0.3-0.1-0.6-0.1-0.9 c0.1-1.2,0.3-2.5,0.5-3.7c0.3-1.8,0.8-3.6,1.3-5.3c0.9-3.2,2-6.4,3.6-9.3C162.9,124.1,164.1,122.3,165.2,120.4 C165.2,120.4,165.2,120.4,165.2,120.4C165.2,120.4,165.2,120.4,165.2,120.4L165.2,120.4L165.2,120.4z M161.9,125.8 c0,0,0,0.1-0.1,0.1C161.8,125.9,161.9,125.8,161.9,125.8L161.9,125.8L161.9,125.8z M158.2,135.3c0,0.2-0.1,0.3-0.1,0.5 C158.1,135.6,158.1,135.4,158.2,135.3L158.2,135.3L158.2,135.3z M156.5,145.3c0,0.1,0,0.1,0.1,0.2 C156.6,145.4,156.6,145.4,156.5,145.3L156.5,145.3L156.5,145.3z M159.6,148.6C159.6,148.6,159.7,148.6,159.6,148.6 C159.7,148.6,159.6,148.6,159.6,148.6L159.6,148.6L159.6,148.6z" fill="inherit"/><path d="M182.1,108.4c-1.4,1.5-2.7,2.9-3.9,4.5c-1.2,1.6-2.1,3.3-3,5.1c-0.9,1.9-1.3,3.9-1.5,5.9 c-0.3,2.3-0.1,4.7,0.4,6.9c0.4,1.4,0.9,2.9,2.1,3.8c0.7,0.5,1.4,0.9,2.1,1.3c0.5,0.2,1.2,0.3,1.8,0.4c0.1-0.1,0.2-0.2,0.3-0.3 c0.1-0.1,0.1-0.1,0.2-0.2c0.5-0.4,0.9-0.8,1.3-1.3c0,0,0.1-0.1,0.1-0.1c-0.7-0.3-1.4-0.5-2-0.8c-0.3-0.2-0.6-0.4-0.8-0.6 c0.1,0.1,0.2,0.2,0.3,0.3c-0.4-0.3-0.7-0.7-0.9-1.1c0.1,0.1,0.1,0.3,0.2,0.4c-0.2-0.3-0.4-0.6-0.5-0.9c-0.2-0.9-0.3-1.9-0.3-2.8 c0.1-2,0.2-4.1,0.4-6.1c0.2-2.1,0.7-4.2,1.2-6.3C180.4,113.8,181.3,111.1,182.1,108.4C182.1,108.4,182.1,108.4,182.1,108.4 C182.1,108.4,182.1,108.4,182.1,108.4L182.1,108.4L182.1,108.4z M180.1,133.8c0.1,0.1,0.2,0.1,0.3,0.2 C180.3,133.9,180.2,133.8,180.1,133.8L180.1,133.8L180.1,133.8z" fill="inherit"/><path d="M180.5,136.1C180.5,136.1,180.6,136,180.5,136.1C180.6,136,180.5,136.1,180.5,136.1L180.5,136.1 L180.5,136.1z" fill="inherit"/><path d="M194.9,102.1c-3.4,3-6.5,6.4-7.8,10.8c-1,3.4-0.6,6.9,0.2,10.2c0,0,0,0,0,0c0.4-1.6,0.7-3.2,1.1-4.7 C190.1,112.8,192.9,107.6,194.9,102.1C194.9,102.1,194.9,102.1,194.9,102.1C194.9,102.1,194.9,102.1,194.9,102.1L194.9,102.1 L194.9,102.1z" fill="inherit"/><path d="M103.4,83.7c-0.1,1.1-0.1,2.1,0,3.2c0,1.1,0.3,2.1,0.7,3.2c0.4,1,1.1,2,1.7,2.9c0.8,1.2,2,2.1,3.1,2.9 c1.9,1.3,4.2,1.9,6.4,2.2c1.7,0.2,3.4,0,5.1-0.1c0,0,0,0,0,0c-2.4-0.8-4.8-1.7-7-2.9c-2.1-1.3-4-2.8-5.8-4.5 c-0.8-0.8-1.6-1.7-2.2-2.7C104.7,86.5,104.1,85.1,103.4,83.7C103.4,83.7,103.4,83.7,103.4,83.7C103.4,83.7,103.4,83.7,103.4,83.7 L103.4,83.7L103.4,83.7z" fill="inherit"/><path d="M129.8,80.4c0.1,2.7,0.3,5.5,1.4,8c1.2,2.8,3.6,5.1,6.2,6.7c4.6,2.8,10.2,3,15.5,3.1c0,0,0,0,0,0 c-3.8-1.6-7.6-3.2-11.2-5.2c-2.4-1.5-4.8-3.1-6.9-5c-1.1-1.1-2-2.3-2.8-3.6C131.3,83,130.6,81.7,129.8,80.4 C129.8,80.3,129.8,80.3,129.8,80.4C129.8,80.3,129.8,80.4,129.8,80.4L129.8,80.4L129.8,80.4z" fill="inherit"/><path d="M160.2,82c0.1,2.4,0.4,4.8,1.3,7c0.9,2.1,2.6,3.9,4.4,5.4c2,1.7,4.5,2.7,6.9,3.4c1.7,0.5,3.5,0.9,5.3,1.2 c0,0,0,0,0,0c-1.9-1.3-3.8-2.5-5.7-3.8c-2.6-1.9-5-3.9-7.3-6.1c-1.2-1.2-2.2-2.4-3.1-3.9c-0.4-0.7-0.8-1.4-1.2-2c0,0,0,0,0,0 C160.7,82.8,160.5,82.4,160.2,82C160.2,82,160.2,82,160.2,82C160.2,82,160.2,82,160.2,82L160.2,82L160.2,82z M162,85 c0,0.1,0.1,0.1,0.1,0.2C162.1,85.1,162.1,85.1,162,85L162,85L162,85z" fill="inherit"/><path d="M182,81.8c0.6,1.3,1.2,2.6,2,3.7c0.7,1.1,1.6,2.1,2.6,3c2.2,2,5.5,2.7,8.5,2.8c3.9,0.1,7.7-0.7,11.4-1.8 c0,0,0,0,0,0c-5.3-0.6-10.6-1.3-15.8-2.6c-1.3-0.4-2.5-0.9-3.6-1.6C185.2,84.4,183.7,83.1,182,81.8C182,81.8,182,81.8,182,81.8 C182,81.8,182,81.8,182,81.8L182,81.8L182,81.8z" fill="inherit"/><path d="M51.1,70.6c-3.8,3.2-7.3,6.8-10.1,10.9c-2.8,4-4.5,8.8-5,13.6c-0.6,5.6,0.5,11.3,2.2,16.6c0,0,0,0,0,0 c0.4-5,1.2-9.8,2.5-14.6c1.3-4.5,2.9-8.8,4.6-13.2c0.9-2.3,2-4.6,3-6.8C49.2,75,50.2,72.8,51.1,70.6C51.1,70.6,51.1,70.6,51.1,70.6 C51.1,70.6,51.1,70.6,51.1,70.6L51.1,70.6L51.1,70.6z" fill="inherit"/><path d="M74.5,66.4c-4.8,4.3-9.3,9.3-11.4,15.5c-1,3-1.4,6.1-1.2,9.2c0.1,2.4,0.8,4.8,1.7,7c0,0,0,0,0,0 c0-2.3,0.3-4.6,0.9-6.9c1.1-4,2.9-7.9,4.5-11.7C70.9,75.1,72.8,70.8,74.5,66.4C74.5,66.4,74.5,66.4,74.5,66.4 C74.5,66.4,74.5,66.4,74.5,66.4L74.5,66.4L74.5,66.4z" fill="inherit"/><path d="M113.8,61.2c-2.2,0.2-4.4,0.6-6.6,1c-3.8,0.8-7.3,2.5-10.5,4.5c-3.3,2.1-6.1,5-8.4,8.1 c-1.1,1.5-1.9,3.1-2.7,4.8c-1,2.1-1.9,4.3-2.7,6.5c0,0,0,0,0,0c2-2,4.1-4,6.1-6c2-2,4.1-3.8,6.3-5.5c4.4-3.6,8.6-7.5,13.5-10.5 C110.4,63.1,112.1,62.1,113.8,61.2C113.9,61.2,113.9,61.2,113.8,61.2C113.9,61.2,113.8,61.2,113.8,61.2L113.8,61.2L113.8,61.2z" fill="inherit"/><path d="M138.8,62.8c-3.6,0.1-7.1,0.7-10.4,2.1c-3.2,1.3-5.8,3.6-8.1,6.1c-2.6,2.9-4.3,6.7-5.6,10.4c0,0,0,0,0,0 c2.6-2.4,5.1-4.8,7.8-7c2.5-1.9,5.2-3.6,7.9-5.2c1.4-0.8,2.8-1.5,4.3-2.2c1.6-0.7,3.2-1.3,4.8-1.9c2-0.8,4.1-1.5,6.2-2.2 c0,0,0,0,0,0c-1.6,0-3.2-0.1-4.8-0.1C140,62.8,139.4,62.8,138.8,62.8L138.8,62.8L138.8,62.8z" fill="inherit"/><path d="M163.6,64c-2.3,0.2-4.6,0.9-6.7,1.8c-2.2,0.9-4,2.5-5.7,4.1c-1.8,1.7-3.4,3.7-4.9,5.7c0,0,0,0,0,0 c4.6-2.2,8.9-4.9,13.3-7.5c2.8-1.6,5.7-3,8.6-4.3c0,0,0,0,0,0C166.7,63.8,165.1,63.9,163.6,64L163.6,64L163.6,64z" fill="inherit"/><path d="M184.1,68.6c-2.4,0-4.8,0.4-7.1,1.1c-0.9,0.3-1.7,0.7-2.5,1.2c-0.9,0.6-1.9,1.3-2.6,2.1 c-1.4,1.6-2.4,3.6-3.2,5.6c0,0,0,0,0,0c1.8-1.5,3.5-3,5.5-4.2c4.1-2.2,8.5-3.9,12.7-5.8c0,0,0,0,0,0c-0.6,0-1.3,0-1.9,0 C184.7,68.6,184.4,68.6,184.1,68.6L184.1,68.6L184.1,68.6z" fill="inherit"/><path d="M213,70c0,0.3,0,0.5,0,0.8c0,0,0,0,0,0c0,1.6-0.1,3.2-0.4,4.8c-0.8,2.5-2,4.9-3.2,7.2 c-0.7,1.2-1.3,2.4-2,3.6c0,0,0,0,0,0c2.1-1.5,3.9-3.2,5.5-5.2c1.1-1.5,1.7-3.4,1.9-5.2C215.1,73.9,214.1,71.7,213,70 C213.1,70,213.1,70,213,70C213,70,213,70,213,70L213,70L213,70z" fill="inherit"/><path d="M222.5,84.2c-2.1,5.1-4.4,10.1-6.9,15c-0.8,1.5-1.6,2.9-2.6,4.3c-0.5,0.6-1,1.3-1.6,1.8c0,0,0,0,0,0 c1.3-0.7,2.6-1.4,3.8-2.3c1.8-1.4,3.4-3.2,4.6-5.2c1.3-2,2-4.4,2.6-6.7C222.8,88.9,222.7,86.5,222.5,84.2 C222.5,84.2,222.5,84.2,222.5,84.2C222.5,84.2,222.5,84.2,222.5,84.2L222.5,84.2L222.5,84.2z M215.7,99c0,0.1-0.1,0.1-0.1,0.2 C215.6,99.2,215.6,99.1,215.7,99L215.7,99L215.7,99z" fill="inherit"/><path d="M226.3,98.3c-0.2,1.3-0.4,2.5-0.7,3.8c-0.5,1.7-1.2,3.4-2,5c-1.1,1.9-2.1,3.8-3.2,5.6 c-1.1,1.8-2.3,3.6-3.7,5.2c-0.4,0.5-0.9,0.9-1.4,1.3c0,0.2,0,0.3,0,0.5c0,0,0,0.1,0,0.1c4-1.3,7.3-4.4,9.6-8 c1.3-2.1,2.1-4.4,2.5-6.9C227.7,102.6,227,100.4,226.3,98.3C226.3,98.3,226.3,98.3,226.3,98.3C226.3,98.3,226.3,98.3,226.3,98.3 L226.3,98.3L226.3,98.3z" fill="inherit"/><path d="M16.9,110.3c-2.7,1-5.3,2.2-7.6,3.9c-2.8,2.1-5.1,4.9-6.7,8c-1.5,2.9-2.1,6.2-2.2,9.5 c-0.1,1.6,0.1,3.1,0.4,4.6c0.3,1.4,0.9,2.8,1.6,4c0,0,0,0,0,0c-0.2-1.4-0.2-2.8-0.1-4.2c0.3-2.2,1-4.4,1.8-6.5 c1.9-4.6,4.4-9,7.3-13C13.1,114.4,15,112.4,16.9,110.3C16.9,110.3,16.9,110.3,16.9,110.3C16.9,110.3,16.9,110.3,16.9,110.3 L16.9,110.3L16.9,110.3z" fill="inherit"/><path d="M16.9,125.6c-1.7,3.2-3.1,6.5-4.2,10c-1.1,3.8-1.2,7.8-0.7,11.6c0.3,2,1,3.9,1.8,5.7c0.8,1.9,1.8,3.6,3,5.3 c1.5,2.1,3.3,3.7,5.3,5.3c0,0,0,0,0,0c-0.8-1.3-1.6-2.7-2.2-4.1c-1.3-3.3-2.1-6.8-2.6-10.4c-0.4-3.7-0.7-7.5-0.8-11.2 c0-2,0.1-4,0.1-6.1C16.8,129.7,16.9,127.6,16.9,125.6C17,125.6,16.9,125.6,16.9,125.6C16.9,125.6,16.9,125.6,16.9,125.6L16.9,125.6 L16.9,125.6z M20,159.5c0,0,0,0.1,0,0.1C20,159.6,20,159.5,20,159.5L20,159.5L20,159.5z" fill="inherit"/><path d="M30.8,136.5c-0.8,3.1-1.2,6.1-0.9,9.3c0.4,3.4,1.5,6.8,3.3,9.8c1.4,2.4,3.2,4.5,5.6,5.9 c1.2,0.7,2.6,1,3.9,1.2c0.6,0.1,1.3,0,1.9,0c1,0,2.1-0.2,3.1-0.3c0,0,0,0,0,0c-1.5-0.3-3-0.8-4.5-1.3c-0.6-0.3-1.2-0.7-1.8-1.1 c-0.7-0.6-1.3-1.1-1.9-1.8c-1.3-1.7-2.1-3.7-3-5.6c-1-2.2-2.1-4.4-3-6.6c-0.7-1.6-1.2-3.2-1.7-4.9C31.5,139.5,31.1,138,30.8,136.5 C30.8,136.4,30.8,136.4,30.8,136.5C30.8,136.4,30.8,136.4,30.8,136.5L30.8,136.5L30.8,136.5z" fill="inherit"/><path d="M59.4,163.8c-1.5,1.5-3,3-4.6,4.5c-3.3,3-6.6,6-10.4,8.4c-1.6,0.9-3.3,1.7-5.1,2.3 c-1.3,0.3-2.6,0.5-3.9,0.6c-1.9,0-3.7-0.3-5.5-0.7c-0.3-0.1-0.5-0.1-0.8-0.2c0,0,0,0,0,0c1.6,1.3,3.2,2.5,5.2,3.3 c0.9,0.4,1.9,0.5,2.8,0.7c1.2,0.2,2.5,0.1,3.8,0c1-0.1,2-0.4,2.9-0.7c1.2-0.4,2.3-0.9,3.4-1.6c2.1-1.4,3.8-3.2,5.4-5.1 c1.7-2.1,3-4.5,4.4-6.8C57.8,167,58.6,165.4,59.4,163.8C59.4,163.8,59.4,163.8,59.4,163.8C59.4,163.8,59.4,163.8,59.4,163.8 L59.4,163.8L59.4,163.8z M39.2,179c-0.1,0-0.2,0-0.2,0.1C39,179.1,39.1,179.1,39.2,179L39.2,179L39.2,179z" fill="inherit"/><path d="M79.1,171.1c-0.1,1-0.1,2.1-0.2,3.1c-0.1,0.8-0.2,1.5-0.4,2.3c-0.5,1.1-1,2.1-1.7,3c-1.6,2.2-3.2,4.2-5.2,6 c-2.7,2.2-5.5,4.1-8.6,5.6c-1.2,0.5-2.3,1-3.6,1.3c-1.6,0.3-3.2,0.5-4.8,0.5c0,0,0,0,0,0c1.6,0.7,3.2,1.2,4.9,1.6 c1.5,0.3,3.2,0.1,4.8-0.2c4-0.8,7.6-2.8,10.4-5.7c1.2-1.2,2.2-2.9,3-4.4c0.9-1.6,1.5-3.4,2.1-5.2c0.4-1.3,0.6-2.7,0.3-4.1 C79.8,173.7,79.5,172.4,79.1,171.1C79.1,171.1,79.1,171.1,79.1,171.1C79.1,171.1,79.1,171.1,79.1,171.1L79.1,171.1L79.1,171.1z M78.9,174.3C78.9,174.3,78.9,174.3,78.9,174.3C78.9,174.3,78.9,174.3,78.9,174.3L78.9,174.3L78.9,174.3z M77,179.4 C77,179.4,76.9,179.4,77,179.4C76.9,179.4,77,179.4,77,179.4L77,179.4L77,179.4z" fill="inherit"/><path d="M110.3,173.7c-0.1,0.8-0.2,1.7-0.5,2.5c-0.4,0.9-0.9,1.7-1.4,2.5c-2,2.9-4.4,5.6-7,7.9 c-2.9,2.4-6.2,4.4-9.5,6.2c-3.7,2-7.5,3.9-11.3,5.8c-1.5,0.7-3,1.4-4.6,1.9c0,0,0,0,0,0c4.3,0.5,8.5-0.2,12.6-1.3 c2.4-0.6,4.6-1.6,6.8-2.6c2.3-1.1,4.3-2.7,6.2-4.4c2.9-2.6,5-6.1,6.6-9.6c0.5-1.1,1-2.1,1.4-3.2c0.4-1,0.7-2,0.9-3.1 C110.7,175.5,110.5,174.6,110.3,173.7C110.3,173.7,110.3,173.7,110.3,173.7C110.3,173.7,110.3,173.7,110.3,173.7L110.3,173.7 L110.3,173.7z M109.8,176.2C109.8,176.2,109.8,176.2,109.8,176.2C109.8,176.2,109.8,176.2,109.8,176.2L109.8,176.2L109.8,176.2z M80.8,198.5C80.7,198.5,80.7,198.6,80.8,198.5C80.7,198.6,80.7,198.5,80.8,198.5L80.8,198.5L80.8,198.5z" fill="inherit"/><path d="M113.1,191c-0.6,2.8-1,5.5-1.9,8.3c-0.9,2.5-2.1,4.8-3.2,7.2c0,0,0,0,0,0c1.6-1.4,3.2-2.8,4.4-4.6 c1-1.4,1.5-3,1.6-4.6C114.2,195.1,113.7,193.1,113.1,191C113.1,191,113.1,191,113.1,191C113.1,191,113.1,191,113.1,191L113.1,191 L113.1,191z" fill="inherit"/><path d="M133.2,183.8c-0.5,1.4-1,2.8-1.5,4.2c-0.7,1.9-1.5,3.8-2.3,5.7c-0.8,2-1.9,3.8-3,5.6c0,0,0.1-0.1,0.1-0.1 c-0.2,0.3-0.5,0.7-0.7,1c0,0,0,0,0,0c0,0,0,0,0,0c0,0,0,0,0,0c0,0,0,0,0,0c-0.3,0.4-0.5,0.7-0.8,1.1c0,0,0,0,0,0 c2.3-1.1,4.6-2.8,6.1-4.9c1.1-1.7,1.8-3.4,2.3-5.4C133.8,188.7,133.6,186.1,133.2,183.8C133.3,183.8,133.2,183.8,133.2,183.8 C133.2,183.8,133.2,183.8,133.2,183.8L133.2,183.8L133.2,183.8z M131.8,187.9C131.7,187.9,131.7,187.9,131.8,187.9 C131.7,187.9,131.7,187.9,131.8,187.9L131.8,187.9L131.8,187.9z M125.7,200.2C125.7,200.2,125.8,200.2,125.7,200.2 C125.8,200.2,125.8,200.2,125.7,200.2C125.8,200.2,125.8,200.2,125.7,200.2L125.7,200.2L125.7,200.2z" fill="inherit"/><path d="M151.1,171.3c-0.3,2.8-0.5,5.6-1.2,8.3c-0.6,2.3-1.3,4.6-2,6.9c-0.4,0.9-0.7,1.8-1.1,2.7c0,0,0,0,0,0 c1.9-1.6,3.4-3.6,4.6-5.8c0.9-1.6,1.2-3.4,1.3-5.2c0.1-1-0.1-2.1-0.4-3.1C152.1,173.8,151.7,172.6,151.1,171.3 C151.1,171.3,151.1,171.3,151.1,171.3C151.1,171.3,151.1,171.3,151.1,171.3L151.1,171.3L151.1,171.3z" fill="inherit"/><path d="M167.1,158.1c0.2,2.1,0.3,4.2,0.1,6.3c-0.4,4.6-1.5,9-3,13.4c0,0,0-0.1,0-0.1c-0.2,0.7-0.5,1.4-0.7,2 c0,0,0,0,0,0c2.5-2.5,4.7-5.4,5.8-8.9c0.7-2.2,0.8-4.5,0.3-6.8C169.2,162,168.3,160,167.1,158.1 C167.1,158.1,167.1,158.1,167.1,158.1C167.1,158.1,167.1,158.1,167.1,158.1L167.1,158.1L167.1,158.1z" fill="inherit"/><path d="M183.2,145.5c-0.1,4.7,0,9.5-0.8,14.1c0-0.1,0-0.1,0-0.2c-0.3,1.4-0.6,2.8-1.1,4.1c0,0,0,0,0,0 c1.7-1.8,3-4,3.8-6.4C186.3,153.1,185,149,183.2,145.5C183.2,145.4,183.2,145.4,183.2,145.5C183.2,145.4,183.2,145.5,183.2,145.5 L183.2,145.5L183.2,145.5z" fill="inherit"/><path d="M198.7,127.3c0.5,2.6,1,5.2,1.2,7.9c0.1,1.5,0.1,3,0,4.4c0,1.6-0.3,3.3-0.6,4.9c-0.2,1.1-0.5,2.1-0.9,3.2 c0,0,0,0,0,0c0.9-1.1,1.7-2.2,2.4-3.5c1-1.7,1.6-3.5,1.9-5.4c0.2-1,0.1-2.1,0-3.1c-0.1-1-0.4-2.1-0.7-3 C201.3,130.7,200.1,129,198.7,127.3C198.7,127.3,198.7,127.3,198.7,127.3C198.7,127.3,198.7,127.3,198.7,127.3L198.7,127.3 L198.7,127.3z" fill="inherit"/><path d="M210.2,115.3c0.3,2.4,0.7,4.8,1,7.3c0.1,1.7,0.1,3.4-0.1,5.1c-0.1,1.3-0.4,2.6-0.6,3.9 c-0.2,1.1-0.4,2.2-0.6,3.4c0,0,0,0,0,0c1.2-1.9,2.4-3.9,3.3-6c0.3-0.8,0.7-1.8,0.7-2.6c0.1-1.4,0-2.7-0.2-4.1 c-0.2-1.1-0.8-2.2-1.3-3.3C211.9,117.6,211.1,116.4,210.2,115.3C210.3,115.3,210.3,115.3,210.2,115.3 C210.3,115.3,210.2,115.3,210.2,115.3L210.2,115.3L210.2,115.3z" fill="inherit"/><path d="M236.9,109.6c-0.5,2.2-0.9,4.3-0.7,6.5c0.1,2.1,0.9,4.3,2.2,6.1c1.4,1.9,3.1,3.5,5.2,4.7 c1.6,0.9,3.5,1.4,5.3,1.8c0,0,0,0,0,0c-1.2-0.9-2.3-1.9-3.4-2.8c-1.9-1.9-3.4-4.1-4.8-6.3c-0.9-1.5-1.6-3.1-2.2-4.8 C237.7,113,237.3,111.3,236.9,109.6C236.9,109.6,236.9,109.5,236.9,109.6C236.9,109.5,236.9,109.5,236.9,109.6L236.9,109.6 L236.9,109.6z M238.3,114.8C238.3,114.8,238.3,114.9,238.3,114.8C238.3,114.9,238.3,114.8,238.3,114.8L238.3,114.8L238.3,114.8z" fill="inherit"/><path d="M254.4,111.7c0.1,2.9,0.3,5.9,1,8.7c0.7,2.7,2.1,5.4,4,7.4c3.1,3.4,7.6,5,11.9,6.4c0,0,0,0,0,0 c-0.3-0.2-0.5-0.5-0.8-0.7c0,0,0,0,0,0c-1.3-1.2-2.6-2.4-3.9-3.5c-2.5-2.4-4.7-5-6.7-8C258,118.7,256.3,115.1,254.4,111.7 C254.4,111.7,254.4,111.7,254.4,111.7C254.4,111.7,254.4,111.7,254.4,111.7L254.4,111.7L254.4,111.7z" fill="inherit"/><path d="M278.7,116.8c-0.2,1.2-0.3,2.4-0.3,3.6c0,1.4,0.3,2.8,0.7,4.2c0.9,3,2.7,5.7,4.9,7.9 c3.3,3.4,7.7,5.2,12.2,6.5c0,0,0,0,0,0c-1.7-1.4-3.4-2.9-5-4.4c-1.7-1.7-3.3-3.5-4.8-5.3c-1.6-1.9-3.2-3.8-4.6-5.9 c-0.7-1.1-1.3-2.1-1.8-3.3C279.5,119.1,279.1,117.9,278.7,116.8C278.7,116.8,278.7,116.8,278.7,116.8 C278.7,116.8,278.7,116.8,278.7,116.8L278.7,116.8L278.7,116.8z" fill="inherit"/><path d="M301.8,119.2c-0.1,1.3-0.1,2.5,0,3.8c0.1,0.9,0.1,1.7,0.3,2.6c0.1,0.7,0.4,1.3,0.7,1.9 c0.6,1.4,1.6,2.7,2.6,3.9c1.3,1.5,2.9,2.6,4.5,3.6c4.8,2.8,10.5,3.1,16,3.1c0,0,0,0,0,0c-3.2-1.4-6.5-2.7-9.6-4.4 c-3.3-1.8-6.5-3.8-9.3-6.2c-1-0.9-1.8-1.9-2.6-3C303.4,122.9,302.7,121,301.8,119.2C301.8,119.2,301.8,119.2,301.8,119.2 C301.8,119.2,301.8,119.2,301.8,119.2L301.8,119.2L301.8,119.2z" fill="inherit"/><path d="M329.6,121.7c0.8,3,1.6,6.1,3.1,8.8c1.6,2.9,4.1,5.3,7,6.8c4.9,2.5,10.3,2.7,15.7,2.6c0,0,0,0,0,0 c-3.7-1.5-7.5-3-11.1-4.9c-2.7-1.5-5.3-3.3-7.7-5.3C334.2,127.2,332,124.4,329.6,121.7C329.7,121.7,329.6,121.7,329.6,121.7 C329.6,121.7,329.6,121.7,329.6,121.7L329.6,121.7L329.6,121.7z" fill="inherit"/><path d="M356.8,121.5c0.3,1.1,0.7,2.1,1.1,3.1c0.5,1.5,1.4,2.7,2.4,3.9c1.7,2.2,4.4,3.6,6.9,4.5c3,1,6.3,1.1,9.4,1 c1.2,0,2.4-0.1,3.6-0.1c0,0,0,0,0,0c-5.4-2-10.9-3.7-16-6.2c-1.6-0.9-3.1-2-4.5-3.2C358.7,123.4,357.8,122.4,356.8,121.5 C356.8,121.4,356.8,121.4,356.8,121.5C356.8,121.4,356.8,121.4,356.8,121.5L356.8,121.5L356.8,121.5z" fill="inherit"/><path d="M385.2,117.2c1,1.7,2.1,3.5,3.7,4.7c0.8,0.6,1.6,1.2,2.5,1.6c1.2,0.6,2.4,1,3.8,1.3c2.3,0.5,4.7,0.3,7,0.1 c1.1-0.1,2.2-0.3,3.3-0.5c0,0,0,0,0,0c-1.8-0.5-3.6-1-5.4-1.4c-1.7-0.4-3.4-0.9-5.1-1.4c-1.9-0.5-3.8-1.1-5.6-1.9 C387.9,118.8,386.6,118,385.2,117.2C385.2,117.2,385.2,117.2,385.2,117.2C385.2,117.2,385.2,117.2,385.2,117.2L385.2,117.2 L385.2,117.2z" fill="inherit"/><path d="M432,101.1c-2.8,1.6-5.6,3.1-8.7,4.2c-2.3,0.7-4.7,1.1-7.1,1.3c-2.7,0.1-5.2-0.2-7.8-0.8 c-1.1-0.2-2.1-0.5-3.2-0.7c0,0,0,0,0,0c2.3,1.9,4.6,3.6,7.5,4.5c2.8,1,6,1,8.8,0.1c2.9-1,5.4-2.6,7.5-4.8 C430.1,103.8,431.1,102.5,432,101.1C432.1,101.2,432.1,101.1,432,101.1C432,101.1,432,101.1,432,101.1L432,101.1L432,101.1z M408.3,105.8C408.4,105.8,408.4,105.8,408.3,105.8C408.4,105.8,408.4,105.8,408.3,105.8L408.3,105.8L408.3,105.8z" fill="inherit"/><path d="M449.9,79.3c-1.3,1-2.6,2-4,2.8c-2.1,1-4.2,1.7-6.4,2.4c-2.1,0.6-4.1,1.2-6.2,1.7c-1,0.2-2,0.3-3,0.4 c-1-0.1-1.8-0.2-2.8-0.5c-0.8-0.3-1.6-0.7-2.4-1.1c0,0,0,0,0,0c1.3,1.7,2.9,3.3,5,3.9c2.7,0.8,5.6,0.4,8.3-0.4 c1.4-0.4,2.7-1,3.9-1.7c1.4-0.7,2.7-1.6,3.9-2.7C447.7,82.7,448.9,81,449.9,79.3C449.9,79.3,449.9,79.2,449.9,79.3 C449.9,79.2,449.9,79.2,449.9,79.3L449.9,79.3L449.9,79.3z" fill="inherit"/><path d="M342.9,91.1c0.1,1.2,0.1,2.4,0,3.7c-0.1,1-0.4,2-0.7,2.9c-0.9,2.2-1.9,4.3-3.1,6.3c-1.3,2.2-2.6,4.4-4,6.5 c-1.1,1.6-2.3,3-3.7,4.3c-0.4,0.3-0.8,0.6-1.2,0.9c0,0,0,0,0,0c2.5-0.6,4.7-1.9,6.7-3.5c2.3-1.8,4.2-3.9,5.7-6.4 c1.4-2.3,2.1-5.1,2.3-7.8C345.2,95.6,344.2,93.2,342.9,91.1C343,91.1,343,91.1,342.9,91.1C343,91.1,342.9,91.1,342.9,91.1 L342.9,91.1L342.9,91.1z M342.3,97.4c0,0,0,0.1,0,0.1C342.3,97.5,342.3,97.5,342.3,97.4L342.3,97.4L342.3,97.4z" fill="inherit"/><path d="M370.1,82.4c0,1.3-0.1,2.6-0.1,3.9c-0.3,2.3-0.9,4.5-1.6,6.6c-0.3,1.1-0.7,2.2-1.1,3.3 c-0.4,1.3-0.8,2.7-1.3,4c-0.7,1.6-1.5,3.1-2.5,4.6c-1.1,1.4-2.3,2.6-3.7,3.8c-0.2,0.2-0.4,0.3-0.6,0.5c0,0,0,0,0,0 c1.8-0.6,3.4-1.3,5-2.3c2.5-1.6,4.5-4.1,5.8-6.7c1.4-2.9,2-6.3,2.2-9.5c0.1-1.6-0.1-3.1-0.5-4.7C371.3,84.8,370.7,83.6,370.1,82.4 C370.1,82.4,370.1,82.4,370.1,82.4C370.1,82.4,370.1,82.4,370.1,82.4L370.1,82.4L370.1,82.4z" fill="inherit"/><path d="M385.4,70.2C385.4,70.2,385.4,70.2,385.4,70.2c0.6,0.3,1.2,0.7,1.7,1.1c0.3,0.2,0.6,0.5,0.8,0.7 c0.6,0.7,1,1.5,1.4,2.3c0.9,2.1,1.4,4.2,1.8,6.4c0.2,1,0.3,2.1,0.3,3.1c0.1,1.1,0,2.2-0.1,3.3c-0.2,1.9-0.6,3.8-1.1,5.6 c0,0,0,0,0,0c1-1.4,2-2.8,2.7-4.3c1.4-2.8,1.9-5.9,1.4-9c-0.3-2.4-1.5-4.9-3.1-6.7c-0.9-1-1.8-1.8-3.1-2.3 c-0.8-0.3-1.7-0.4-2.6-0.4C385.7,70.2,385.6,70.2,385.4,70.2L385.4,70.2L385.4,70.2z" fill="inherit"/><path d="M388.5,43.5c2,1,4.1,1.9,6,3.2c1.3,1,2.5,2,3.6,3.2c1.4,1.7,2.6,3.6,3.6,5.6c2.1,4.7,4,9.5,5,14.6 c0.4,2.3,0.5,4.5,0.4,6.8c0,0,0,0,0,0c3.1-6.7,2.8-14.9,0.3-21.8c-1.4-3.8-4.2-6.9-7.5-9.1C396.5,43.7,392.4,43.5,388.5,43.5 C388.5,43.5,388.5,43.5,388.5,43.5L388.5,43.5L388.5,43.5z" fill="inherit"/><path d="M384.2,28.8c-1.7,1-2.9,2.5-4,4.2c0.2,0.1,0.4,0.1,0.6,0.2c0.7-0.5,1.4-0.9,2.2-1.3c1.4-0.6,2.9-1,4.4-1.3 c2.4-0.4,4.8-0.6,7.3-0.5c1.7,0.2,3.3,0.5,4.9,1.1c1.4,0.5,2.8,1.1,4.1,1.7c0,0,0,0,0,0c-1.3-1.4-2.6-2.8-4.1-3.9 c-2.1-1.4-4.6-2.4-7.3-2.5c-0.1,0-0.1,0-0.2,0C389.3,26.6,386.6,27.4,384.2,28.8L384.2,28.8L384.2,28.8z M387.8,30.6 c-0.1,0-0.2,0-0.3,0.1C387.6,30.6,387.7,30.6,387.8,30.6L387.8,30.6L387.8,30.6z" fill="inherit"/><path d="M368.4,17.1c-1.4,0.5-2.8,1-4.1,1.7c-1.6,0.8-2.9,1.8-4,3.2c-0.4,0.5-0.7,1.1-0.9,1.7 c-0.3,0.6-0.3,1.3-0.4,2c0,0.5,0.2,1.3,0.3,1.7c0.1,0.6,0.4,1.1,0.7,1.7c0,0,0,0,0,0c0-0.3,0-0.7,0-1c0.1-0.8,0.2-1.5,0.4-2.3 c0,0.1,0,0.1-0.1,0.2c0.1-0.4,0.3-0.9,0.6-1.3c1.1-1.5,2.4-2.8,3.8-4.1C366,19.5,367.2,18.3,368.4,17.1 C368.4,17.1,368.4,17.1,368.4,17.1C368.4,17.1,368.4,17.1,368.4,17.1L368.4,17.1L368.4,17.1z" fill="inherit"/><path d="M346.3,15.6c-3,0.3-5.8,1.2-8.4,2.6c-1.3,0.7-2.4,1.7-3.4,2.7c-1,1-1.7,2.2-2.3,3.5 c-0.5,1.1-0.7,2.3-0.8,3.5c0,0.2,0,0.3,0,0.5c0,0,0.1,0,0.1,0c0.5,0,1,0.1,1.5,0.3c0-0.1,0.1-0.3,0.1-0.4c0.3-0.6,0.6-1.2,1-1.8 c0.7-0.9,1.4-1.8,2.3-2.6c1.5-1.3,3.1-2.4,4.8-3.5c1.7-1.1,3.5-2.1,5.3-3c0.7-0.3,1.4-0.7,2.1-1c0.6-0.3,1.1-0.5,1.7-0.8 c0,0,0,0,0,0C349,15.4,347.6,15.5,346.3,15.6L346.3,15.6L346.3,15.6z M336.3,23.9c0,0-0.1,0.1-0.1,0.1 C336.2,23.9,336.3,23.9,336.3,23.9L336.3,23.9L336.3,23.9z" fill="inherit"/><path d="M321.7,16.8c-1.8,0.4-3.4,1.1-5,1.9c-2,1-3.7,2.4-5.3,3.8c-1.4,1.3-2.4,2.9-3.3,4.5 c-0.9,1.7-1.4,3.6-1.4,5.5c0,1.4,0.5,2.9,1.3,4.1c0.4-0.5,0.9-0.8,1.5-1c0,0,0-0.1,0-0.1c-0.1-0.4-0.1-0.8-0.1-1.2 c0.1-0.7,0.2-1.4,0.4-2.1c0.4-0.9,0.8-1.7,1.3-2.5c2.2-3.1,4.8-5.9,7.6-8.5c2.5-2.1,5.3-3.8,8.1-5.4c0,0,0,0,0,0 C325.1,16.1,323.4,16.4,321.7,16.8L321.7,16.8L321.7,16.8z" fill="inherit"/><path d="M297.8,25.5c-1.9,0.6-3.8,1.3-5.6,2.2c-1.3,0.7-2.6,1.5-3.7,2.5c-1.2,1.1-2.2,2.3-3.1,3.6 c-1.5,2.2-2.1,5.2-1.5,7.8c0.3,1.4,0.8,2.6,1.6,3.8c0.7,1.1,1.8,2.1,2.7,3.1c0,0,0,0,0,0c-0.5-1.5-0.9-2.9-1.3-4.5 c-0.1-0.9-0.1-1.9-0.1-2.8c0.1-0.9,0.3-1.7,0.5-2.6c0.7-1.8,1.7-3.5,2.7-5.1c1.2-1.7,2.5-3.2,4-4.7c1-1,2.1-2,3.1-2.9c0,0,0,0,0,0 c0,0,0,0,0,0c0,0,0,0,0,0c0,0,0,0,0,0C297.5,25.7,297.7,25.6,297.8,25.5C297.8,25.5,297.8,25.5,297.8,25.5 C297.8,25.5,297.8,25.5,297.8,25.5L297.8,25.5L297.8,25.5z M297.4,25.9C297.4,25.9,297.4,25.9,297.4,25.9 C297.4,25.9,297.4,25.9,297.4,25.9C297.4,25.9,297.4,25.9,297.4,25.9L297.4,25.9L297.4,25.9z" fill="inherit"/><path d="M278.4,30.2c-4.1,2.2-8.4,4.6-11.1,8.5c-1.8,2.6-2.7,5.7-2.4,8.9c0.1,1.3,0.6,2.5,1.3,3.6 c0.7,1,1.8,1.7,2.9,2.3c0,0,0,0,0,0c-0.3-0.5-0.6-1-0.9-1.6c-0.3-0.7-0.5-1.3-0.7-2c0-0.4-0.1-0.9,0-1.3c0.1-1.1,0.4-2.1,0.7-3.1 c1-2.5,2.4-4.9,3.9-7.1C274.1,35.6,276.3,32.9,278.4,30.2C278.5,30.2,278.4,30.2,278.4,30.2C278.4,30.2,278.4,30.2,278.4,30.2 L278.4,30.2L278.4,30.2z M272,38.6c0,0.1-0.1,0.1-0.1,0.2C271.9,38.7,271.9,38.6,272,38.6L272,38.6L272,38.6z" fill="inherit"/><path d="M243.6,93.2c-0.7,2-1.7,3.8-2.8,5.5c-0.8,1-1.6,2-2.5,2.9c-0.3,0.3-0.7,0.5-1.1,0.7c0.1,0,0.2-0.1,0.2-0.1 c-0.3,0.2-0.7,0.3-1.1,0.4c-0.4,0.1-0.7,0.1-1.1,0.1c-0.9-0.2-1.8-0.5-2.7-0.7c0,0,0,0,0,0c0.5,0.5,1.1,1,1.6,1.5 c0.6,0.5,1.3,0.7,2.1,0.9c1.5,0.3,3.3-0.6,4.3-1.6C243.2,100.4,244,96.8,243.6,93.2C243.6,93.2,243.6,93.2,243.6,93.2 C243.6,93.2,243.6,93.2,243.6,93.2L243.6,93.2L243.6,93.2z M238.4,101.5C238.4,101.6,238.4,101.6,238.4,101.5 C238.4,101.6,238.4,101.6,238.4,101.5L238.4,101.5L238.4,101.5z M236.3,102.7c-0.1,0-0.1,0-0.2,0 C236.2,102.8,236.3,102.8,236.3,102.7L236.3,102.7L236.3,102.7z" fill="inherit"/><path d="M263.5,94.1c-0.3,2-0.5,4-1.2,5.9c-0.4,1-0.9,1.9-1.5,2.8c-0.8,1.2-1.8,2.2-2.8,3.2 c-0.6,0.5-1.1,0.9-1.8,1.3c0,0,0.1,0,0.1,0c-0.4,0.2-0.9,0.4-1.3,0.5c0,0,0,0,0,0c0.9,0.1,0.7,0.1,1.4,0.1c0.8,0,1.6-0.3,2.3-0.6 c1.7-0.6,3-1.7,4.2-3c1.1-1.2,1.7-3.2,1.7-4.8C264.6,97.7,264.2,95.9,263.5,94.1C263.5,94.1,263.5,94.1,263.5,94.1 C263.5,94.1,263.5,94.1,263.5,94.1L263.5,94.1L263.5,94.1z" fill="inherit"/><path d="M288.7,91.2c-0.5,1.8-1.1,3.7-1.7,5.5c-1.2,3.2-2.7,6.4-4.7,9.3c-1,1.4-2.1,2.6-3.4,3.8 c-1.6,1.2-3.2,2.3-5,3.3c0,0,0,0,0,0c2.1-0.2,4.1-0.6,6.1-1.3c2.4-0.9,4.5-2.6,6.2-4.6c1.9-2.2,2.9-5.1,3.5-8 c0.5-2.6,0.3-5.4-0.1-8C289.3,91.2,289,91.2,288.7,91.2L288.7,91.2L288.7,91.2z" fill="inherit"/><path d="M317.3,92.9c-1.7,3.7-3.3,7.4-5.6,10.8c-2.2,3-4.4,6-7.2,8.5c-2.1,1.7-4.4,3-6.6,4.3c0,0,0,0,0,0 c1.7-0.2,3.3-0.5,5-0.8c3.3-0.7,6.2-2.5,8.7-4.7c2.4-2.2,3.9-5.2,5-8.3c0.6-1.6,0.7-3.3,0.8-5C317.4,96.1,317.4,94.6,317.3,92.9 C317.4,92.9,317.3,92.9,317.3,92.9C317.3,92.9,317.3,92.9,317.3,92.9L317.3,92.9L317.3,92.9z M304.4,112.3c-0.1,0-0.1,0.1-0.2,0.1 C304.3,112.4,304.3,112.3,304.4,112.3L304.4,112.3L304.4,112.3z" fill="inherit"/><path d="M334.7,53.7C334.7,53.7,334.6,53.7,334.7,53.7c1.8,0.8,3.5,1.7,5.2,2.7c1.2,0.9,2.3,2,3.4,3.1 c1.2,1.5,2.2,3.1,3.1,4.8c1.4,3.1,2.7,6.3,3.8,9.5c0,0,0,0,0,0c0.1-1.3,0.1-2.7,0.1-4c0-2.8-0.4-5.7-1.4-8.4 c-0.6-1.4-1.4-2.7-2.4-3.8c-1.1-1.1-2.3-1.9-3.6-2.7c-1.9-1.1-4.1-1.4-6.2-1.4C335.9,53.6,335.3,53.6,334.7,53.7L334.7,53.7 L334.7,53.7z" fill="inherit"/><path d="M332.9,75.4c1.1,1.5,2.2,3,3,4.6c0.6,1.4,1.1,2.9,1.4,4.5c0.2,1.5,0.3,3,0.2,4.5c0,0,0-0.1,0-0.1 c-0.1,0.9-0.3,1.8-0.6,2.7c0,0,0,0,0,0c2-2.3,3.3-5.4,2.6-8.5c-0.4-1.8-1.1-3.5-2.4-4.8C336,76.9,334.5,76.1,332.9,75.4 C332.9,75.3,332.9,75.3,332.9,75.4C332.9,75.3,332.9,75.4,332.9,75.4L332.9,75.4L332.9,75.4z" fill="inherit"/><path d="M244.2,87.2c-1.3,0.9-2.5,1.8-3.9,2.5c-0.8,0.3-1.6,0.6-2.4,0.8c-2.3,0.3-4.6,0.4-6.9,0.2 c-1.6-0.2-3.2-0.6-4.8-1c0,0,0,0,0,0c1.3,1.3,2.7,2.4,4.5,3.1c2,0.7,3.9,0.9,5.9,0.7c1.7-0.2,3.2-1,4.6-2.1 C242.5,90.3,243.4,88.7,244.2,87.2C244.2,87.2,244.2,87.2,244.2,87.2C244.2,87.2,244.2,87.2,244.2,87.2L244.2,87.2L244.2,87.2z" fill="inherit"/><path d="M243.9,69.8c-0.8,1.6-1.4,3.2-1.7,5c-0.2,1-0.1,1.9,0.1,2.9c0.1,0.8,0.5,1.5,0.8,2.2 c0.7,1.4,2.4,2.4,3.9,2.8c1,0.3,2,0.4,3,0.4c0.3-0.2,0.5-0.4,0.8-0.5c-1.1-0.5-2.1-1-3.1-1.6c-0.6-0.4-1.1-0.8-1.6-1.3 c-0.4-0.6-0.7-1.1-1.1-1.7c-0.3-0.8-0.5-1.5-0.7-2.3C244,73.7,244,71.7,243.9,69.8C243.9,69.8,243.9,69.8,243.9,69.8 C243.9,69.8,243.9,69.8,243.9,69.8L243.9,69.8L243.9,69.8z M247.7,80.9c0,0,0.1,0.1,0.1,0.1C247.8,81,247.7,81,247.7,80.9 L247.7,80.9L247.7,80.9z" fill="inherit"/><path d="M259.4,60.2c0,0.9,0.1,1.7,0.2,2.6c0.1,0.9,0.4,1.6,0.9,2.3c1,1.6,2.7,2.5,4.4,3c1.9,0.6,4.1,0.5,6,0.1 c1.8-0.4,3.6-1,5.3-1.7c0,0,0,0,0,0c-1.8-0.1-3.7-0.1-5.5-0.2c-2.2-0.2-4.4-0.5-6.5-1.1c-0.6-0.2-1.2-0.5-1.8-0.9 c-0.5-0.4-0.9-0.7-1.3-1.2C260.5,62.1,260,61.2,259.4,60.2C259.4,60.2,259.4,60.2,259.4,60.2C259.4,60.2,259.4,60.2,259.4,60.2 L259.4,60.2L259.4,60.2z" fill="inherit"/><path d="M278.8,50.2c-0.1,0.9-0.2,1.9,0,2.8c0.3,1.1,0.7,1.9,1.4,2.8c1.3,1.8,3.4,2.9,5.5,3.4 c1.1,0.3,2.4,0.3,3.6,0.3c0.9,0,1.9-0.1,2.8-0.3c1.1-0.2,2.3-0.4,3.4-0.6c0,0,0,0,0,0c-3.1-0.6-6.1-1.1-9.1-2.1 c-1.6-0.6-3.1-1.3-4.6-2.3c-0.6-0.5-1.1-0.9-1.6-1.5c-0.2-0.3-0.4-0.5-0.6-0.8C279.4,51.4,279.1,50.8,278.8,50.2 C278.8,50.2,278.8,50.2,278.8,50.2C278.8,50.2,278.8,50.2,278.8,50.2L278.8,50.2L278.8,50.2z M280.3,53C280.3,53,280.3,53,280.3,53 C280.3,53,280.3,53,280.3,53L280.3,53L280.3,53z" fill="inherit"/><path d="M302.5,40.3c-0.4,1.3-0.8,2.8-0.4,4.1c0.4,1.3,1.2,2.3,2.1,3.3c0.5,0.5,1.1,0.9,1.7,1.3 c0.8,0.5,1.8,1,2.8,1.2c2.2,0.6,4.4,0.8,6.7,0.7c4.7-0.2,9.3-1.9,13.7-3.5c0,0,0,0,0,0c-1.7,0-3.4-0.1-5,0c-1.5,0-2.9,0-4.4,0 c-2.3,0-4.7-0.2-7-0.4c-1.9-0.2-3.7-0.4-5.5-1c-0.8-0.3-1.6-0.7-2.4-1.2c-0.3-0.2-0.6-0.5-0.9-0.8c0.1,0.1,0.1,0.1,0.2,0.2 c-0.3-0.3-0.5-0.6-0.7-0.9C302.9,42.3,302.7,41.3,302.5,40.3C302.5,40.3,302.5,40.3,302.5,40.3C302.5,40.3,302.5,40.3,302.5,40.3 L302.5,40.3L302.5,40.3z" fill="inherit"/><path d="M334.1,35.3c0.7,2.3,1.6,4.5,3,6.5c1.4,2,3.5,3.5,5.9,4.3c3.2,1.1,6.6,1.2,10,0.8c0,0,0,0,0,0 c-0.7-0.2-1.4-0.5-2.1-0.7c0,0,0.1,0,0.1,0c-0.6-0.2-1.2-0.5-1.9-0.7c-3-1.2-5.9-2.6-8.6-4.4C338.2,39.5,336.3,37.4,334.1,35.3 C334.2,35.3,334.2,35.3,334.1,35.3C334.2,35.3,334.1,35.3,334.1,35.3L334.1,35.3L334.1,35.3z M349,45.5c0,0,0.1,0,0.2,0.1 C349.1,45.6,349,45.6,349,45.5L349,45.5L349,45.5z" fill="inherit"/><path d="M354.4,34.1c1.5,1.7,3,3.4,4.5,5.1c0,0,0,0,0-0.1c1.1,1.3,2.2,2.7,3.3,4c1.1,1.3,2.2,2.6,3.4,3.9 c1.1,1.3,2.1,2.7,3.1,4.2c0.7,1.1,1.3,2.2,1.9,3.4c0,0,0,0,0,0c-0.1-1.6-0.3-3.2-0.7-4.8c-0.5-2.4-1.7-4.6-3.1-6.6 c-1.5-2.1-3.3-4-5.4-5.5C359.2,36.1,356.8,35,354.4,34.1C354.4,34,354.4,34,354.4,34.1C354.4,34,354.3,34.1,354.4,34.1L354.4,34.1 L354.4,34.1z" fill="inherit"/><path d="M232.1,48.6c-1.5,2.2-2.8,4.6-3.8,7.1c-1,2.5-1.4,5.2-1.4,7.9c0,2.1,0.9,4.6,2.3,6.2c1.5,1.7,3.5,2.9,5.5,4 c0,0,0,0,0,0c-1.2-1.6-2.3-3.1-3.3-4.8c-0.3-0.8-0.6-1.6-0.7-2.5c-0.1-1-0.2-2-0.1-3c0.1-1.6,0.3-3.2,0.4-4.9 C231.3,55.2,231.8,51.9,232.1,48.6C232.1,48.6,232.1,48.6,232.1,48.6C232.1,48.6,232.1,48.6,232.1,48.6L232.1,48.6L232.1,48.6z" fill="inherit"/><path d="M248.7,34.7c-1.4,1.3-2.6,2.8-3.5,4.5c-1.1,2.1-1.7,4.6-1.9,6.9c-0.2,2.1,0,4.2,0.5,6.2 c0.2,0.8,0.6,1.6,0.9,2.3c0.5,1.1,1.1,2.1,1.8,3.2c0,0,0,0,0,0c-0.4-2.5-0.7-4.9-0.5-7.4c0.3-2.6,0.6-5.2,0.9-7.8 C247.2,39.8,247.8,37.2,248.7,34.7C248.7,34.7,248.7,34.7,248.7,34.7C248.7,34.7,248.7,34.7,248.7,34.7L248.7,34.7L248.7,34.7z M246,50.1c0,0,0,0.1,0,0.1C246,50.2,246,50.1,246,50.1L246,50.1L246,50.1z" fill="inherit"/><path d="M269.3,17.6c-1.7,1.2-3.3,2.4-4.7,3.9c-1.5,1.6-2.4,3.9-2.9,6c-0.2,0.9-0.2,2-0.2,2.9 c0.1,0.9,0.3,2,0.8,2.7c1.1,1.5,2.6,2.6,4.2,3.5c0,0,0,0,0,0c-0.7-1.1-1.4-2.2-2-3.3c0,0.1,0.1,0.1,0.1,0.2 c-0.2-0.4-0.3-0.8-0.4-1.2c-0.1-0.4-0.1-0.8-0.1-1.2c0.2-2.3,1-4.6,1.8-6.8C266.8,22,268.1,19.9,269.3,17.6 C269.3,17.6,269.3,17.6,269.3,17.6C269.3,17.6,269.3,17.6,269.3,17.6L269.3,17.6L269.3,17.6z M266,24.1c0,0.1-0.1,0.2-0.1,0.2 C265.9,24.2,266,24.2,266,24.1L266,24.1L266,24.1z M264,31.3C264,31.4,264,31.4,264,31.3C264,31.4,264,31.4,264,31.3L264,31.3 L264,31.3z" fill="inherit"/><path d="M289.3,7.8c-1,1.1-1.9,2.2-2.7,3.4c-0.8,1.1-1.5,2.4-1.9,3.7c-0.3,1.1-0.5,2.3-0.6,3.4 c-0.1,1.4,0.2,2.8,0.5,4.2c0,0,0,0,0,0c0.5-1.8,1-3.6,1.6-5.4C287.4,14.1,288.6,11,289.3,7.8C289.4,7.8,289.4,7.8,289.3,7.8 C289.4,7.8,289.3,7.8,289.3,7.8L289.3,7.8L289.3,7.8z" fill="inherit"/><path d="M318.7,3.2c-2.4,0.5-4.9,1.7-6.9,3.2c-0.8,0.6-1.5,1.4-2.1,2.3c-0.7,1-1.2,2.1-1.6,3.2 c-0.7,2-0.1,4.1,0.8,5.9c0,0,0,0,0,0c0-0.3,0-0.7,0.1-1c0.1-0.9,0.3-1.8,0.5-2.6c0.3-0.7,0.7-1.4,1.1-2c1-1.4,2.2-2.5,3.5-3.6 c2.3-1.8,4.6-3.5,7.2-4.9c0,0,0,0,0,0c0.4-0.2,0.8-0.4,1.2-0.6c0,0,0,0,0,0c0.2-0.1,0.4-0.2,0.6-0.3c0,0,0,0,0,0 C321.6,2.8,320.2,2.9,318.7,3.2L318.7,3.2L318.7,3.2z M314.5,8.2c-0.1,0.1-0.2,0.2-0.3,0.2C314.3,8.3,314.4,8.2,314.5,8.2 L314.5,8.2L314.5,8.2z" fill="inherit"/><path d="M364.2,4.1c-2.2,0-4.4,0.6-6.4,1.4c-1.7,0.7-3.1,1.9-4.2,3.3c-1.1,1.4-1.7,3-2.1,4.7c0,0,0,0,0,0 c0.7-0.9,1.5-1.7,2.3-2.4c1.3-1,2.7-1.9,4.1-2.7c2.2-1,4.3-2,6.5-2.9c1.2-0.5,2.5-0.9,3.7-1.4c0,0,0,0,0,0 c-1.1-0.1-2.2-0.1-3.3-0.1C364.6,4.1,364.4,4.1,364.2,4.1L364.2,4.1L364.2,4.1z" fill="inherit"/></g><g fill="#0F0F0F" id="change3_1"><path d="M195.9,76.3c1.5,2.1,2.8,4.2,4,6.4c2.9,6.2,4.8,12.7,7.6,19c1.4,3.3,3,6.5,4.5,9.7 c-0.1-0.2-0.2-0.3-0.2-0.5c0.6,1.4,1.3,2.8,1.9,4.2c0.6,1.6,1.1,3.2,1.4,4.8c0.2,1.5,0.4,3,0.5,4.6c0,0,0,0,0,0 c0.5-1.5,0.7-3.1,0.8-4.6c0.3-3.4-0.2-6.8-0.9-10.2c-0.5-2.5-1-5-1.7-7.4c-1-3.4-2.1-6.7-3.6-9.9c-1.6-3.4-3.5-6.5-5.9-9.5 c-1.2-1.4-2.4-2.7-3.9-3.9C198.9,78,197.4,77.1,195.9,76.3C195.9,76.2,195.9,76.2,195.9,76.3C195.9,76.2,195.9,76.3,195.9,76.3 L195.9,76.3L195.9,76.3z" fill="inherit"/><path d="M214.4,70.2c1,1.8,2,3.7,2.9,5.5c2,4.3,3.3,8.8,4.6,13.3c1.5,5,3,9.9,4,15c0.2,1.2,0.4,2.5,0.5,3.7 c0.1,1.6,0.1,3.1,0,4.7c-0.3,2.3-0.8,4.5-1.5,6.6c-0.4,1.1-0.9,2.2-1.5,3.2c-0.5,0.7-1.1,1.4-1.7,2c-1.4,1.1-2.9,2.2-4.4,3.2 c0,0,0,0,0,0c1.6-0.4,3.1-1,4.6-1.7c2.2-1,3.7-2.6,5.1-4.5c1.7-2.5,2.9-5.2,3.8-8c1.1-3.3,1.4-6.7,1.3-10.1 c-0.2-6.8-2.8-13.2-5.7-19.2c-1.4-2.8-3.1-5.3-5.1-7.6C219.3,74,216.9,72.1,214.4,70.2C214.4,70.2,214.4,70.2,214.4,70.2 C214.4,70.2,214.4,70.2,214.4,70.2L214.4,70.2L214.4,70.2z M226.4,112.7c0,0.1,0,0.2,0,0.3C226.4,112.9,226.4,112.8,226.4,112.7 L226.4,112.7L226.4,112.7z" fill="inherit"/><path d="M332.7,27.5c-1,0.1-2,0.2-3,0.4c-1.3,0.2-2.6,0.5-3.9,0.7c-0.8,0.2-1.7,0.3-2.5,0.5c-1.3,0.3-2.5,0.7-3.8,1 c-2,0.5-3.9,1-5.8,1.6c-2.9,1-5.8,1.9-8.7,2.9c-4.4,1.5-8.7,3.3-13,5.1c-3.6,1.5-7.1,3.1-10.7,4.7c-3.7,1.7-7.4,3.4-11,5.2 c-2.8,1.4-5.6,2.7-8.3,4.1c-3.2,1.6-6.3,3.4-9.4,5.2c-5.3,3.2-10.4,6.7-15.2,10.8c-2.4,2.1-4.6,4.4-6.7,6.7c-1,1.1-2,2.3-2.9,3.5 c-0.8,1-1.6,2-2.5,3c-1.2-1.6-2.4-3.2-3.8-4.8c-2-2.3-4.1-4.4-6.3-6.6c0,0,0,0,0,0c1.4,2.6,2.8,5.2,4.1,7.9c0.5,1,0.9,2,1.4,3 c0.2,0.5,0.5,1.1,0.7,1.6c0.3,0.7,0.6,1.4,1,2.1c0.5,0.8,1.4,1.5,2.4,1.6c0.6,0.1,1,0.1,1.5-0.1c0.8-0.2,1.5-0.6,2.2-1.1 c1.4-0.9,2.6-2,3.8-3.1c1.3-1.2,2.7-2.3,4.1-3.4c5.5-4.3,11.4-8.1,17.4-11.6c6.3-3.7,12.6-7.2,19-10.8c3.8-2.1,7.6-4.1,11.4-6.1 c3.8-2,7.5-4,11.3-5.9c4.1-2.1,8.1-4.3,12.3-6.4c2.4-1.1,4.7-2.3,7.1-3.5c1.3-0.6,2.5-1.1,3.8-1.6c1.2-0.5,2.4-1,3.7-1.5 c0.6-0.2,1.1-0.5,1.7-0.7c2-0.6,3.9-1.2,5.9-1.8c5.4-1.3,10.8-2.6,16.3-3.9c0,0,0,0,0,0C341.8,26.4,337.2,26.9,332.7,27.5 L332.7,27.5L332.7,27.5z M225.7,82.6c-0.1,0.1-0.2,0.2-0.2,0.3c0,0,0,0,0,0C225.5,82.8,225.6,82.7,225.7,82.6L225.7,82.6 L225.7,82.6z" fill="inherit"/><path d="M347.8,1.1c-2.1,0.1-4.2,0.1-6.2,0.4c-4.3,0.5-8.7,1.2-12.9,2c-2.8,0.6-5.7,1.2-8.5,1.8 c-5.5,1.2-11,2.7-16.4,4.5c-6.2,2.1-12.1,4.7-17.9,7.8c-5.8,3.1-11.2,6.7-16.2,10.9c-5.5,4.6-10.3,10.1-14.6,15.9 c-2.8,3.7-5.2,7.7-7.6,11.7c-3,5-5.9,10.1-8.7,15.3c0,0,0,0,0,0c2.9-2.8,5.8-5.6,8.6-8.5c4.5-4.6,8.8-9.4,13.3-14 c2.2-2.3,4.5-4.5,6.8-6.7c2.6-2.5,5.4-4.9,8.2-7.2c5.2-4.2,10.6-8.1,16.4-11.5c9.8-5.8,20.2-10.6,31-14.4c1.6-0.6,3.3-1.1,4.9-1.7 c0.8-0.3,1.6-0.6,2.5-0.9c2.3-0.7,4.6-1.4,6.8-2.1c1.5-0.4,3-0.7,4.5-1.1c1.4-0.3,2.8-0.5,4.2-0.8c2.9-0.6,5.8-1,8.7-1.6 c0,0,0,0,0,0c-0.2,0-0.5,0-0.7,0C351.9,1,349.8,1,347.8,1.1L347.8,1.1L347.8,1.1z" fill="inherit"/><path d="M353,84.8c-2.9,0.5-5.9,1.1-8.8,1.7c0.1,0,0.2,0,0.4-0.1c-1.5,0.3-3,0.6-4.4,0.9c-1.7,0.3-3.4,0.6-5.1,0.8 c-2.1,0.2-4.2,0.5-6.3,0.7c-4.4,0.4-8.8,1.1-13.1,2c-2.5,0.4-5.1,0.9-7.6,1.4c-2.2,0.4-4.3,0.8-6.5,1.2c-2.5,0.5-4.9,1-7.3,1.5 c0,0,0,0,0,0c5,1.1,10.1,2,15.2,2.2c2.5,0.1,5.1,0.2,7.6,0c2.5-0.2,5.1-0.5,7.6-1c2.7-0.5,5.4-1.1,8-1.9c1.3-0.4,2.7-0.8,4-1.3 c1.2-0.4,2.4-1,3.6-1.5c2-0.9,4-1.9,6-3C348.6,87.3,350.8,86,353,84.8C353.1,84.8,353.1,84.8,353,84.8C353,84.8,353,84.8,353,84.8 L353,84.8L353,84.8z" fill="inherit"/><path d="M386.2,53.8c-0.6,1.6-1.1,3.1-1.7,4.7c-0.7,1.8-1.5,3.5-2.2,5.3c-0.6,1.5-1.2,3-1.9,4.4 c-0.8,1.6-1.8,3.2-2.8,4.7c0,0,0.1-0.1,0.1-0.1c-0.6,0.9-1.2,1.7-1.8,2.6c0,0,0,0,0,0c3-1.6,5.8-3.7,7.7-6.5 C386.5,64.5,386.9,58.9,386.2,53.8C386.2,53.7,386.2,53.7,386.2,53.8C386.2,53.7,386.2,53.7,386.2,53.8L386.2,53.8L386.2,53.8z" fill="inherit"/><path d="M326.6,10.3c-4.8,0.3-9.7,0.9-14.5,1.8c-7.1,1.3-14.2,3.3-20.7,6.4c-2.5,1.2-5,2.5-7.3,4 c-2.2,1.4-4.3,3.1-6.3,4.8c-4,3.4-7.4,7.3-10.8,11.2c0,0,0,0,0,0c2.3-1.4,4.5-2.8,6.8-4.2c2.2-1.4,4.5-2.6,6.8-3.8 c7.4-3.6,15.2-6,23.3-7.7c9.8-1.9,19.7-2.9,29.5-4c2.7-0.3,5.4-0.7,8.1-1c3.8-0.4,7.7-0.8,11.6-1c3.8-0.2,7.6,0,11.4,0.3 c3.2,0.3,6.3,0.6,9.5,1.2c2,0.4,4,0.7,6,1.1c1.5,0.3,3.1,0.8,4.6,1.1c1.4,0.3,2.8,0.8,4.1,1.3c-0.1,0-0.1,0-0.2-0.1 c1.5,0.5,3,1.1,4.4,1.9c0.6,0.5,1.2,1,1.7,1.6c0,0,0,0,0,0c-0.5-1-1-1.7-1.8-2.4c-0.8-0.8-1.9-1.4-2.9-1.9c-1.3-0.7-2.7-1.3-4-2 c-1.1-0.5-2.2-0.9-3.3-1.4c-0.9-0.4-1.8-0.7-2.7-1c-3.5-1.2-7-2.3-10.6-3.3c-6.9-1.9-13.9-3-21-3.3c-1.8-0.1-3.6-0.1-5.4-0.1 C337.4,9.7,332,10,326.6,10.3L326.6,10.3L326.6,10.3z M392.8,23.5C392.9,23.6,392.9,23.6,392.8,23.5 C392.9,23.6,392.9,23.6,392.8,23.5L392.8,23.5L392.8,23.5z" fill="inherit"/><path d="M224.8,89.8c0.8,1,1.5,1.9,2.2,2.9c0.7,0.9,1.2,2,1.8,3c0.7,1.5,1.3,3.1,1.8,4.7c0.2,0.9,0.4,1.7,0.6,2.6 c0.1,0.6,0.2,1.2,0.4,1.8c0.3,1.1,0.9,1.9,1.8,2.7c1.1,1,2.7,1.5,4,2.2c0.5,0.2,1,0.5,1.5,0.8c2.3,1.1,4.7,2.3,7,3.3 c1.4,0.6,2.7,1.2,4.1,1.8c1,0.4,2.1,0.8,3.1,1.1c2.4,0.8,4.8,1.7,7.3,2.4c3,0.8,5.9,1.7,8.9,2.4c2.3,0.6,4.7,1.1,7.1,1.6 c3.8,0.8,7.7,1.1,11.6,1.4c5.9,0.4,11.8,0.1,17.6-0.5c3-0.3,6-0.6,9-1c2.2-0.3,4.4-0.6,6.6-1.1c2.2-0.5,4.3-1.1,6.4-1.7 c2.1-0.6,4.1-1.3,6.2-1.9c3.1-1,6.2-2,9.3-3.1c0,0,0,0,0,0c-5.9,0.8-11.8,1.6-17.7,2.3c-4.9,0.6-9.8,0.5-14.7,0.3 c-3.8-0.2-7.7-0.3-11.5-0.6c-9.5-0.7-18.8-2.5-28-4.8c-3.6-0.9-7.3-1.7-10.9-2.6c-2.3-0.6-4.6-1.1-7-1.6c-1.7-0.4-3.3-0.9-5-1.4 c-1.5-0.4-3-0.8-4.5-1.3c-1.2-0.3-2.4-0.7-3.6-1c-1.4-0.4-2.8-0.7-4.1-1.1c-0.1,0-0.2-0.1-0.2-0.1c0,0,0-0.1-0.1-0.1 c-0.8-1.8-1.6-3.7-2.7-5.4c-1-1.6-2.2-3-3.5-4.3C228.2,92.1,226.5,90.9,224.8,89.8C224.8,89.8,224.8,89.8,224.8,89.8 C224.8,89.8,224.8,89.8,224.8,89.8L224.8,89.8L224.8,89.8z M235.6,102.9c0,0.1,0.1,0.1,0.1,0.2C235.6,103,235.6,102.9,235.6,102.9 L235.6,102.9L235.6,102.9z M298.4,117.2c0.3,0,0.5,0,0.8,0.1C298.9,117.2,298.7,117.2,298.4,117.2L298.4,117.2L298.4,117.2z" fill="inherit"/><path d="M341.6,46c-1.6,0.1-3.2,0.4-4.8,0.8c-2.2,0.5-4.3,1.2-6.4,2.1c0,0,0,0,0,0c3.8,0.4,7.6,0.6,11.4,0.2 c3.6-0.4,7.2-1.3,10.6-2.4c0,0,0,0,0,0c-2.9-0.5-5.8-0.8-8.7-0.8C343,46,342.3,46,341.6,46L341.6,46L341.6,46z" fill="inherit"/><path d="M203.1,82.4c0.3,1.4,0.6,2.8,0.8,4.2c0-0.1,0-0.1,0-0.2c0.2,1.5,0.2,3,0.2,4.6c0-0.1,0-0.3,0-0.4 c0,0.5-0.1,0.9-0.2,1.3c0,0,0,0-0.1,0.1c-1.2,0.9-2.4,1.6-3.7,2.4c-1.5,0.9-2.9,1.9-4.4,2.9c-2.9,2-5.8,4.1-8.5,6.4 c-1.2,1-2.4,2-3.5,3.1c0,0,0,0,0,0c2-0.6,4-1.1,5.9-1.9c1.8-0.7,3.6-1.5,5.4-2.4c3.6-1.9,6.8-4.4,9.9-7.1c0.1-0.1,0.2-0.2,0.3-0.2 c0,0,0,0,0,0c0.7-0.5,1.3-1,1.7-1.8c0.2-0.5,0.2-1,0.3-1.5c0-0.5-0.1-0.9-0.2-1.4c-0.1-0.5-0.2-1-0.4-1.4 C206,86.5,204.5,84.4,203.1,82.4C203.1,82.4,203.1,82.4,203.1,82.4C203.1,82.4,203.1,82.4,203.1,82.4L203.1,82.4L203.1,82.4z M203.7,91.9c0,0-0.1,0.1-0.2,0.1C203.6,92,203.7,91.9,203.7,91.9L203.7,91.9L203.7,91.9z M187.3,103.5c0,0-0.1,0.1-0.1,0.1 C187.2,103.6,187.2,103.5,187.3,103.5L187.3,103.5L187.3,103.5z" fill="inherit"/><path d="M206.4,95.5c0.7,3.3,1.5,6.5,2.2,9.8c0.2,1.6,0.3,3.1,0.1,4.7c0,0.1,0,0.2-0.1,0.3c0,0,0,0.1-0.1,0.1 c-0.8,1-1.8,1.8-2.8,2.7c-0.5,0.4-0.9,0.8-1.4,1.2c-4.8,3.7-9.6,7.3-14.1,11.2c-4.5,3.9-8.6,8.2-12.9,12.3c0,0,0,0,0,0 c4.5-1.5,8.8-3.5,12.8-5.9c4.4-2.6,8.7-5.4,12.5-8.7c1.8-1.6,3.6-3.2,5.3-5c1.6-1.7,3.1-3.4,4.7-5.1c0.5-0.5,0.9-1.2,1.1-1.9 c0.2-0.8,0.1-1.6,0-2.5c-0.5-2.6-1.7-4.9-3.1-7.2C209.2,99.6,207.8,97.5,206.4,95.5C206.4,95.5,206.4,95.5,206.4,95.5 C206.4,95.5,206.4,95.5,206.4,95.5L206.4,95.5L206.4,95.5z" fill="inherit"/><path d="M179.8,130.3c-0.7,0.9-1.4,1.9-2.1,2.8c-0.5,0.6-0.9,1.2-1.4,1.7c-1.1,1.3-2.4,2.5-3.7,3.6 c-1.1,0.9-2.2,1.8-3.3,2.7c-1.2,1-2.6,1.9-3.8,2.8c-2.5,1.8-5.2,3.4-7.8,5c-2.3,1.5-4.8,2.8-7.2,4.1c-1.4,0.8-2.8,1.6-4.2,2.4 c-1.2,0.7-2.5,1.3-3.7,1.9c-1.8,0.9-3.6,1.8-5.4,2.7c-9.1,4.2-18.8,7.2-28.7,9c-4.5,0.7-9,1.1-13.6,1.3c-4.6,0.2-9.3,0.2-13.9-0.2 c-4.5-0.5-8.9-1.5-13.1-3c-3.2-1.3-6.3-2.9-9.2-4.8c-2.3-1.7-4.6-3.5-6.7-5.5c-2.5-2.3-4.7-4.8-6.9-7.3c-0.5-0.6-1-1.2-1.4-1.8 c0,0,0,0,0,0c1.1,2.7,2.2,5.4,3.6,8c1.6,2.9,3.5,5.6,5.6,8.2c1.9,2.3,4,4.4,6.3,6.2c2.6,2,5.4,3.6,8.4,5c2.9,1.3,6,2.3,9.1,3 c3.6,0.8,7.3,1.1,11,1.2c7.1,0.3,14.2-0.5,21.2-1.9c6.7-1.3,13.3-3.4,19.7-5.9c3-1.2,6-2.6,8.9-4.1c3.1-1.6,6-3.5,8.9-5.4 c2.5-1.7,5-3.5,7.4-5.3c1.8-1.3,3.6-2.5,5.3-3.9c2.1-1.7,4.1-3.4,6.1-5c1.7-1.4,3.3-2.9,4.9-4.4c1.7-1.6,3.3-3.3,4.8-5 C177,136.1,178.6,133.2,179.8,130.3C179.8,130.3,179.8,130.3,179.8,130.3C179.8,130.3,179.8,130.3,179.8,130.3L179.8,130.3 L179.8,130.3z M81.6,170.3c0.1,0,0.2,0,0.2,0C81.8,170.3,81.7,170.3,81.6,170.3L81.6,170.3L81.6,170.3z" fill="inherit"/><path d="M58.3,103C58.2,103,58.2,103,58.3,103C58.2,103.1,58.2,103.1,58.3,103c1.4-0.8,2.8-1.6,4.3-2.4 C61.2,101.3,59.7,102.1,58.3,103L58.3,103L58.3,103z" fill="inherit"/><path d="M24.2,88.7c-1.1,0.9-2.2,1.9-3.3,2.9c-1.3,1.2-2.3,2.7-3.3,4.2c-2,3.1-3,6.7-3.6,10.3 c-0.7,3.9-0.9,7.9-0.2,11.8c0.7,3.8,2.2,7.3,4.4,10.5c1,1.4,2.2,2.7,3.3,4c1.4,1.4,3,2.6,4.7,3.7c2.5,1.7,5.5,3,8.3,4.1 c2.8,1.1,5.6,2.1,8.4,3c0,0,0,0,0,0c-1.7-1.3-3.4-2.5-5.1-3.8c-1.3-0.9-2.5-1.9-3.8-2.8c-2.4-1.8-4.6-3.8-6.6-6.1 c-1.6-2.1-3-4.3-4.1-6.6c-1.2-2.8-2.1-5.7-2.7-8.7c-0.3-2.2-0.5-4.4-0.5-6.7c-0.1-2.5-0.1-5,0.1-7.5c0.3-2.4,0.7-4.7,1.5-7 C22.5,92.2,23.3,90.5,24.2,88.7C24.2,88.8,24.2,88.7,24.2,88.7C24.2,88.7,24.2,88.7,24.2,88.7L24.2,88.7L24.2,88.7z" fill="inherit"/><path d="M7.5,153.5c1.5,2.3,3,4.5,4.8,6.6c2,2.3,4.3,4.3,6.9,6c2.4,1.5,4.9,2.8,7.6,3.5c3.1,0.9,6.4,0.9,9.6,0.3 c6.7-1.2,12.7-5.3,17.3-10.2c0,0,0,0,0,0c-1.3,0.7-2.7,1.3-4.1,1.9c-1.9,0.8-3.8,1.4-5.7,2c-2.6,0.6-5.1,1-7.7,1 c-2.8-0.1-5.5-0.5-8.2-1.1c-4.7-1.4-9.3-3.3-13.5-5.7C12.1,156.4,9.8,154.9,7.5,153.5C7.5,153.5,7.5,153.5,7.5,153.5 C7.5,153.5,7.5,153.5,7.5,153.5L7.5,153.5L7.5,153.5z M14.2,157.6c0.1,0,0.2,0.1,0.2,0.1C14.3,157.7,14.3,157.7,14.2,157.6 L14.2,157.6L14.2,157.6z" fill="inherit"/><path d="M42.2,184.7c0.8,1.2,1.6,2.4,2.6,3.5c1,1.2,2.2,2.1,3.4,3.1c2.9,2.3,6.2,4,9.5,5.5 c3.6,1.6,7.4,2.7,11.3,3.5c4.3,0.9,8.7,1.3,13.2,1.2c4.1-0.1,8.1-0.6,12.1-1.6c4-0.9,7.8-2.4,11.5-4.3c2.4-1.2,4.7-2.6,7-4 c1.9-1.1,3.8-2.2,5-4.2c0,0,0,0,0,0c-0.3,0.3-0.6,0.6-0.9,0.8c0,0,0,0,0,0c-2,1.4-4.3,2-6.6,2.8c-2.3,0.8-4.7,1.5-7.1,2.2 c-2.6,0.7-5.2,1.1-7.9,1.3c-5.1,0.3-10.3,0.1-15.4-0.4c-5.4-0.5-10.7-1.1-16-2c-3.1-0.6-6.1-1.3-9.1-2.1c-2.8-0.7-5.6-1.6-8.3-2.9 C45,186.5,43.6,185.6,42.2,184.7C42.3,184.7,42.3,184.7,42.2,184.7C42.2,184.7,42.2,184.7,42.2,184.7L42.2,184.7L42.2,184.7z M46.3,187.2c0.1,0,0.1,0.1,0.2,0.1C46.5,187.2,46.4,187.2,46.3,187.2L46.3,187.2L46.3,187.2z" fill="inherit"/><path d="M115.9,71.1c-7.3,0.8-14.4,2.7-21.3,5.3c-6.4,2.4-12.7,5.4-18.5,9.1c-2.8,1.8-5.5,3.8-8.1,5.9 c-2.7,2.2-5.2,4.7-7.7,7.2c0,0,0,0,0,0c3.3-1.8,6.7-3.6,10.1-5.1c7-3,14.3-5.5,21.6-7.5c7.2-2,14.6-3.7,22-5 c6.3-1,12.7-1.6,19.1-1.6c6.3,0,12.6,0.4,18.9,0.9c3.7,0.4,7.5,0.8,11.2,1.2c5,0.5,10,0.9,14.9,1.2c3.3,0.2,6.7-0.1,10-0.3 c1.7-0.1,3.5-0.3,5.2-0.6c1.6-0.3,3.1-0.9,4.6-1.4c0.8-0.3,1.7-0.5,2.5-0.6c0.4-0.1,0.4-0.2,0.5-0.5c0.1-0.1-0.3-0.5-0.2-0.4 c0,0,0,0,0,0c0,0.1,0.1,0.3,0.1,0.4c-0.1,0.1-0.1,0.1-0.2,0.2c-0.4,0-0.8,0-1.2,0c-0.5,0-1.1,0-1.6,0c-0.9,0-1.8,0.2-2.6,0.3 c-1.8,0.3-3.6,0.3-5.4,0.2c-2.7-0.1-5.5-0.3-8.2-0.6c-4-0.5-7.9-1.4-11.9-2.3c-2.1-0.5-4.3-0.9-6.4-1.4c-3.1-0.7-6.1-1.4-9.2-2.1 c-5.5-1.2-11.1-1.9-16.7-2.4c-3.6-0.3-7.2-0.5-10.7-0.5C123,70.5,119.5,70.7,115.9,71.1L115.9,71.1L115.9,71.1z" fill="inherit"/></g></svg>